<?xml version="1.0" encoding="UTF-8"?>
<svg id="Layer_2" data-name="Layer 2" xmlns="http://www.w3.org/2000/svg" viewBox="0 0 165 12.61">
  <defs>
    <style>
      .cls-1 {
        fill: #fff;
      }
    </style>
  </defs>
  <g id="Layer_1-2" data-name="Layer 1">
    <g>
      <path class="cls-1" d="m1.9,2.05c.21.21.32.48.32.79s-.11.57-.32.79c-.21.21-.48.32-.79.32s-.57-.11-.79-.32c-.21-.21-.32-.48-.32-.79s.11-.57.32-.79c.21-.21.48-.32.79-.32s.57.11.79.32Zm0,6.93c.21.21.32.48.32.79s-.11.58-.32.79c-.21.21-.48.32-.79.32s-.57-.11-.79-.32c-.21-.21-.32-.48-.32-.79s.11-.57.32-.79c.21-.21.48-.32.79-.32s.57.11.79.32ZM3.63.32c.21.21.32.48.32.79s-.11.57-.32.79c-.21.21-.48.32-.79.32s-.57-.11-.79-.32c-.21-.21-.32-.48-.32-.79s.11-.57.32-.79c.21-.21.48-.32.79-.32s.57.11.79.32Zm0,3.46c.21.21.32.48.32.79s-.11.58-.32.79c-.21.21-.48.32-.79.32s-.57-.11-.79-.32c-.21-.21-.32-.48-.32-.79s.11-.57.32-.79c.21-.21.48-.32.79-.32s.57.11.79.32Zm0,5.2c.21.21.32.48.32.79s-.11.58-.32.79c-.21.21-.48.32-.79.32s-.57-.11-.79-.32c-.21-.21-.32-.48-.32-.79s.11-.57.32-.79c.21-.21.48-.32.79-.32s.57.11.79.32ZM5.36.32c.21.21.32.48.32.79s-.11.57-.32.79c-.21.21-.48.32-.79.32s-.57-.11-.79-.32c-.21-.21-.32-.48-.32-.79s.11-.57.32-.79c.21-.21.48-.32.79-.32s.57.11.79.32Zm0,3.46c.21.21.32.48.32.79s-.11.58-.32.79c-.21.21-.48.32-.79.32s-.57-.11-.79-.32c-.21-.21-.32-.48-.32-.79s.11-.57.32-.79c.21-.21.48-.32.79-.32s.57.11.79.32Zm0,1.73c.21.21.32.48.32.79s-.11.57-.32.79c-.21.21-.48.32-.79.32s-.57-.11-.79-.32c-.21-.21-.32-.48-.32-.79s.11-.57.32-.79c.21-.21.48-.32.79-.32s.57.11.79.32Zm0,3.46c.21.21.32.48.32.79s-.11.58-.32.79c-.21.21-.48.32-.79.32s-.57-.11-.79-.32c-.21-.21-.32-.48-.32-.79s.11-.57.32-.79c.21-.21.48-.32.79-.32s.57.11.79.32ZM7.09.32c.21.21.32.48.32.79s-.11.57-.32.79c-.21.21-.48.32-.79.32s-.57-.11-.79-.32c-.21-.21-.32-.48-.32-.79s.11-.57.32-.79c.21-.21.48-.32.79-.32s.57.11.79.32Zm0,5.2c.21.21.32.48.32.79s-.11.57-.32.79c-.21.21-.48.32-.79.32s-.57-.11-.79-.32c-.21-.21-.32-.48-.32-.79s.11-.57.32-.79c.21-.21.48-.32.79-.32s.57.11.79.32Zm0,3.46c.21.21.32.48.32.79s-.11.58-.32.79c-.21.21-.48.32-.79.32s-.57-.11-.79-.32c-.21-.21-.32-.48-.32-.79s.11-.57.32-.79c.21-.21.48-.32.79-.32s.57.11.79.32ZM8.82.32c.21.21.32.48.32.79s-.11.57-.32.79c-.21.21-.48.32-.79.32s-.57-.11-.79-.32c-.21-.21-.32-.48-.32-.79s.11-.57.32-.79c.21-.21.48-.32.79-.32s.57.11.79.32Zm0,6.93c.21.21.32.48.32.79s-.11.57-.32.79c-.21.21-.48.32-.79.32s-.57-.11-.79-.32c-.21-.21-.32-.48-.32-.79s.11-.57.32-.79c.21-.21.48-.32.79-.32s.57.11.79.32Z"/>
      <path class="cls-1" d="m12.29,3.78c.21.21.32.48.32.79s-.11.58-.32.79c-.21.21-.48.32-.79.32s-.57-.11-.79-.32c-.21-.21-.32-.48-.32-.79s.11-.57.32-.79c.21-.21.48-.32.79-.32s.57.11.79.32Zm0,1.73c.21.21.32.48.32.79s-.11.57-.32.79c-.21.21-.48.32-.79.32s-.57-.11-.79-.32c-.21-.21-.32-.48-.32-.79s.11-.57.32-.79c.21-.21.48-.32.79-.32s.57.11.79.32Zm0,1.73c.21.21.32.48.32.79s-.11.57-.32.79c-.21.21-.48.32-.79.32s-.57-.11-.79-.32c-.21-.21-.32-.48-.32-.79s.11-.57.32-.79c.21-.21.48-.32.79-.32s.57.11.79.32Zm1.73-5.2c.21.21.32.48.32.79s-.11.57-.32.79c-.21.21-.48.32-.79.32s-.57-.11-.79-.32c-.21-.21-.32-.48-.32-.79s.11-.57.32-.79c.21-.21.48-.32.79-.32s.57.11.79.32Zm0,3.46c.21.21.32.48.32.79s-.11.57-.32.79c-.21.21-.48.32-.79.32s-.57-.11-.79-.32c-.21-.21-.32-.48-.32-.79s.11-.57.32-.79c.21-.21.48-.32.79-.32s.57.11.79.32Zm0,3.46c.21.21.32.48.32.79s-.11.58-.32.79c-.21.21-.48.32-.79.32s-.57-.11-.79-.32c-.21-.21-.32-.48-.32-.79s.11-.57.32-.79c.21-.21.48-.32.79-.32s.57.11.79.32Zm1.73-6.93c.21.21.32.48.32.79s-.11.57-.32.79c-.21.21-.48.32-.79.32s-.57-.11-.79-.32c-.21-.21-.32-.48-.32-.79s.11-.57.32-.79c.21-.21.48-.32.79-.32s.57.11.79.32Zm0,3.46c.21.21.32.48.32.79s-.11.57-.32.79c-.21.21-.48.32-.79.32s-.57-.11-.79-.32c-.21-.21-.32-.48-.32-.79s.11-.57.32-.79c.21-.21.48-.32.79-.32s.57.11.79.32Zm0,3.46c.21.21.32.48.32.79s-.11.58-.32.79c-.21.21-.48.32-.79.32s-.57-.11-.79-.32c-.21-.21-.32-.48-.32-.79s.11-.57.32-.79c.21-.21.48-.32.79-.32s.57.11.79.32Zm1.73-6.93c.21.21.32.48.32.79s-.11.57-.32.79c-.21.21-.48.32-.79.32s-.57-.11-.79-.32c-.21-.21-.32-.48-.32-.79s.11-.57.32-.79c.21-.21.48-.32.79-.32s.57.11.79.32Zm0,3.46c.21.21.32.48.32.79s-.11.57-.32.79c-.21.21-.48.32-.79.32s-.57-.11-.79-.32c-.21-.21-.32-.48-.32-.79s.11-.57.32-.79c.21-.21.48-.32.79-.32s.57.11.79.32Zm0,3.46c.21.21.32.48.32.79s-.11.58-.32.79c-.21.21-.48.32-.79.32s-.57-.11-.79-.32c-.21-.21-.32-.48-.32-.79s.11-.57.32-.79c.21-.21.48-.32.79-.32s.57.11.79.32Zm1.73-5.2c.21.21.32.48.32.79s-.11.58-.32.79c-.21.21-.48.32-.79.32s-.57-.11-.79-.32c-.21-.21-.32-.48-.32-.79s.11-.57.32-.79c.21-.21.48-.32.79-.32s.57.11.79.32Zm0,1.73c.21.21.32.48.32.79s-.11.57-.32.79c-.21.21-.48.32-.79.32s-.57-.11-.79-.32c-.21-.21-.32-.48-.32-.79s.11-.57.32-.79c.21-.21.48-.32.79-.32s.57.11.79.32Zm0,3.46c.21.21.32.48.32.79s-.11.58-.32.79c-.21.21-.48.32-.79.32s-.57-.11-.79-.32c-.21-.21-.32-.48-.32-.79s.11-.57.32-.79c.21-.21.48-.32.79-.32s.57.11.79.32Z"/>
      <path class="cls-1" d="m22.68,2.05c.21.21.32.48.32.79s-.11.57-.32.79c-.21.21-.48.32-.79.32s-.57-.11-.79-.32c-.21-.21-.32-.48-.32-.79s.11-.57.32-.79c.21-.21.48-.32.79-.32s.57.11.79.32Zm0,6.93c.21.21.32.48.32.79s-.11.58-.32.79c-.21.21-.48.32-.79.32s-.57-.11-.79-.32c-.21-.21-.32-.48-.32-.79s.11-.57.32-.79c.21-.21.48-.32.79-.32s.57.11.79.32Zm1.73-6.93c.21.21.32.48.32.79s-.11.57-.32.79c-.21.21-.48.32-.79.32s-.57-.11-.79-.32c-.21-.21-.32-.48-.32-.79s.11-.57.32-.79c.21-.21.48-.32.79-.32s.57.11.79.32Zm0,1.73c.21.21.32.48.32.79s-.11.58-.32.79c-.21.21-.48.32-.79.32s-.57-.11-.79-.32c-.21-.21-.32-.48-.32-.79s.11-.57.32-.79c.21-.21.48-.32.79-.32s.57.11.79.32Zm0,1.73c.21.21.32.48.32.79s-.11.57-.32.79c-.21.21-.48.32-.79.32s-.57-.11-.79-.32c-.21-.21-.32-.48-.32-.79s.11-.57.32-.79c.21-.21.48-.32.79-.32s.57.11.79.32Zm0,1.73c.21.21.32.48.32.79s-.11.57-.32.79c-.21.21-.48.32-.79.32s-.57-.11-.79-.32c-.21-.21-.32-.48-.32-.79s.11-.57.32-.79c.21-.21.48-.32.79-.32s.57.11.79.32Zm0,1.73c.21.21.32.48.32.79s-.11.58-.32.79c-.21.21-.48.32-.79.32s-.57-.11-.79-.32c-.21-.21-.32-.48-.32-.79s.11-.57.32-.79c.21-.21.48-.32.79-.32s.57.11.79.32Zm1.73-5.2c.21.21.32.48.32.79s-.11.58-.32.79c-.21.21-.48.32-.79.32s-.57-.11-.79-.32c-.21-.21-.32-.48-.32-.79s.11-.57.32-.79c.21-.21.48-.32.79-.32s.57.11.79.32Zm0,5.2c.21.21.32.48.32.79s-.11.58-.32.79c-.21.21-.48.32-.79.32s-.57-.11-.79-.32c-.21-.21-.32-.48-.32-.79s.11-.57.32-.79c.21-.21.48-.32.79-.32s.57.11.79.32Zm1.73-6.93c.21.21.32.48.32.79s-.11.57-.32.79c-.21.21-.48.32-.79.32s-.57-.11-.79-.32c-.21-.21-.32-.48-.32-.79s.11-.57.32-.79c.21-.21.48-.32.79-.32s.57.11.79.32Zm1.73,0c.21.21.32.48.32.79s-.11.57-.32.79c-.21.21-.48.32-.79.32s-.57-.11-.79-.32c-.21-.21-.32-.48-.32-.79s.11-.57.32-.79c.21-.21.48-.32.79-.32s.57.11.79.32Z"/>
      <path class="cls-1" d="m33.07,3.78c.21.21.32.48.32.79s-.11.58-.32.79c-.21.21-.48.32-.79.32s-.57-.11-.79-.32c-.21-.21-.32-.48-.32-.79s.11-.57.32-.79c.21-.21.48-.32.79-.32s.57.11.79.32Zm0,1.73c.21.21.32.48.32.79s-.11.57-.32.79c-.21.21-.48.32-.79.32s-.57-.11-.79-.32c-.21-.21-.32-.48-.32-.79s.11-.57.32-.79c.21-.21.48-.32.79-.32s.57.11.79.32Zm1.73-3.46c.21.21.32.48.32.79s-.11.57-.32.79c-.21.21-.48.32-.79.32s-.57-.11-.79-.32c-.21-.21-.32-.48-.32-.79s.11-.57.32-.79c.21-.21.48-.32.79-.32s.57.11.79.32Zm0,5.2c.21.21.32.48.32.79s-.11.57-.32.79c-.21.21-.48.32-.79.32s-.57-.11-.79-.32c-.21-.21-.32-.48-.32-.79s.11-.57.32-.79c.21-.21.48-.32.79-.32s.57.11.79.32Zm0,3.46c.21.21.32.48.32.79s-.11.57-.32.79c-.21.21-.48.32-.79.32s-.57-.11-.79-.32c-.21-.21-.32-.48-.32-.79s.11-.58.32-.79c.21-.21.48-.32.79-.32s.57.11.79.32Zm1.73-8.66c.21.21.32.48.32.79s-.11.57-.32.79c-.21.21-.48.32-.79.32s-.57-.11-.79-.32c-.21-.21-.32-.48-.32-.79s.11-.57.32-.79c.21-.21.48-.32.79-.32s.57.11.79.32Zm0,5.2c.21.21.32.48.32.79s-.11.57-.32.79c-.21.21-.48.32-.79.32s-.57-.11-.79-.32c-.21-.21-.32-.48-.32-.79s.11-.57.32-.79c.21-.21.48-.32.79-.32s.57.11.79.32Zm0,3.46c.21.21.32.48.32.79s-.11.57-.32.79c-.21.21-.48.32-.79.32s-.57-.11-.79-.32c-.21-.21-.32-.48-.32-.79s.11-.58.32-.79c.21-.21.48-.32.79-.32s.57.11.79.32Zm1.73-8.66c.21.21.32.48.32.79s-.11.57-.32.79c-.21.21-.48.32-.79.32s-.57-.11-.79-.32c-.21-.21-.32-.48-.32-.79s.11-.57.32-.79c.21-.21.48-.32.79-.32s.57.11.79.32Zm0,5.2c.21.21.32.48.32.79s-.11.57-.32.79c-.21.21-.48.32-.79.32s-.57-.11-.79-.32c-.21-.21-.32-.48-.32-.79s.11-.57.32-.79c.21-.21.48-.32.79-.32s.57.11.79.32Zm0,3.46c.21.21.32.48.32.79s-.11.57-.32.79c-.21.21-.48.32-.79.32s-.57-.11-.79-.32c-.21-.21-.32-.48-.32-.79s.11-.58.32-.79c.21-.21.48-.32.79-.32s.57.11.79.32Zm1.73-8.66c.21.21.32.48.32.79s-.11.57-.32.79c-.21.21-.48.32-.79.32s-.57-.11-.79-.32c-.21-.21-.32-.48-.32-.79s.11-.57.32-.79c.21-.21.48-.32.79-.32s.57.11.79.32Zm0,1.73c.21.21.32.48.32.79s-.11.58-.32.79c-.21.21-.48.32-.79.32s-.57-.11-.79-.32c-.21-.21-.32-.48-.32-.79s.11-.57.32-.79c.21-.21.48-.32.79-.32s.57.11.79.32Zm0,1.73c.21.21.32.48.32.79s-.11.57-.32.79c-.21.21-.48.32-.79.32s-.57-.11-.79-.32c-.21-.21-.32-.48-.32-.79s.11-.57.32-.79c.21-.21.48-.32.79-.32s.57.11.79.32Zm0,1.73c.21.21.32.48.32.79s-.11.57-.32.79c-.21.21-.48.32-.79.32s-.57-.11-.79-.32c-.21-.21-.32-.48-.32-.79s.11-.57.32-.79c.21-.21.48-.32.79-.32s.57.11.79.32Zm0,1.73c.21.21.32.48.32.79s-.11.58-.32.79c-.21.21-.48.32-.79.32s-.57-.11-.79-.32c-.21-.21-.32-.48-.32-.79s.11-.57.32-.79c.21-.21.48-.32.79-.32s.57.11.79.32Z"/>
      <path class="cls-1" d="m43.46,3.78c.21.21.32.48.32.79s-.11.58-.32.79-.48.32-.79.32-.57-.11-.79-.32c-.21-.21-.32-.48-.32-.79s.11-.57.32-.79.48-.32.79-.32.57.11.79.32Zm0,1.73c.21.21.32.48.32.79s-.11.57-.32.79c-.21.21-.48.32-.79.32s-.57-.11-.79-.32-.32-.48-.32-.79.11-.57.32-.79.48-.32.79-.32.57.11.79.32Zm0,1.73c.21.21.32.48.32.79s-.11.57-.32.79c-.21.21-.48.32-.79.32s-.57-.11-.79-.32-.32-.48-.32-.79.11-.57.32-.79c.21-.21.48-.32.79-.32s.57.11.79.32Zm1.73-5.2c.21.21.32.48.32.79s-.11.57-.32.79-.48.32-.79.32-.57-.11-.79-.32-.32-.48-.32-.79.11-.57.32-.79c.21-.21.48-.32.79-.32s.57.11.79.32Zm0,3.46c.21.21.32.48.32.79s-.11.57-.32.79-.48.32-.79.32-.57-.11-.79-.32-.32-.48-.32-.79.11-.57.32-.79.48-.32.79-.32.57.11.79.32Zm0,3.46c.21.21.32.48.32.79s-.11.58-.32.79c-.21.21-.48.32-.79.32s-.57-.11-.79-.32c-.21-.21-.32-.48-.32-.79s.11-.57.32-.79c.21-.21.48-.32.79-.32s.57.11.79.32Zm1.73-6.93c.21.21.32.48.32.79s-.11.57-.32.79-.48.32-.79.32-.57-.11-.79-.32c-.21-.21-.32-.48-.32-.79s.11-.57.32-.79.48-.32.79-.32.57.11.79.32Zm0,3.46c.21.21.32.48.32.79s-.11.57-.32.79-.48.32-.79.32-.57-.11-.79-.32c-.21-.21-.32-.48-.32-.79s.11-.57.32-.79c.21-.21.48-.32.79-.32s.57.11.79.32Zm0,3.46c.21.21.32.48.32.79s-.11.58-.32.79c-.21.21-.48.32-.79.32s-.57-.11-.79-.32c-.21-.21-.32-.48-.32-.79s.11-.57.32-.79c.21-.21.48-.32.79-.32s.57.11.79.32Zm1.73-6.93c.21.21.32.48.32.79s-.11.57-.32.79c-.21.21-.48.32-.79.32s-.57-.11-.79-.32-.32-.48-.32-.79.11-.57.32-.79c.21-.21.48-.32.79-.32s.57.11.79.32Zm0,3.46c.21.21.32.48.32.79s-.11.57-.32.79c-.21.21-.48.32-.79.32s-.57-.11-.79-.32-.32-.48-.32-.79.11-.57.32-.79.48-.32.79-.32.57.11.79.32Zm0,3.46c.21.21.32.48.32.79s-.11.58-.32.79-.48.32-.79.32-.57-.11-.79-.32c-.21-.21-.32-.48-.32-.79s.11-.57.32-.79c.21-.21.48-.32.79-.32s.57.11.79.32Zm1.73-5.2c.21.21.32.48.32.79s-.11.58-.32.79c-.21.21-.48.32-.79.32s-.57-.11-.79-.32c-.21-.21-.32-.48-.32-.79s.11-.57.32-.79.48-.32.79-.32.57.11.79.32Zm0,1.73c.21.21.32.48.32.79s-.11.57-.32.79-.48.32-.79.32-.57-.11-.79-.32-.32-.48-.32-.79.11-.57.32-.79.48-.32.79-.32.57.11.79.32Zm0,3.46c.21.21.32.48.32.79s-.11.58-.32.79c-.21.21-.48.32-.79.32s-.57-.11-.79-.32c-.21-.21-.32-.48-.32-.79s.11-.57.32-.79c.21-.21.48-.32.79-.32s.57.11.79.32Z"/>
      <path class="cls-1" d="m53.85,2.05c.21.21.32.48.32.79s-.11.57-.32.79-.48.32-.79.32-.57-.11-.79-.32c-.21-.21-.32-.48-.32-.79s.11-.57.32-.79.48-.32.79-.32.57.11.79.32Zm0,1.73c.21.21.32.48.32.79s-.11.58-.32.79c-.21.21-.48.32-.79.32s-.57-.11-.79-.32c-.21-.21-.32-.48-.32-.79s.11-.57.32-.79c.21-.21.48-.32.79-.32s.57.11.79.32Zm0,1.73c.21.21.32.48.32.79s-.11.57-.32.79-.48.32-.79.32-.57-.11-.79-.32c-.21-.21-.32-.48-.32-.79s.11-.57.32-.79c.21-.21.48-.32.79-.32s.57.11.79.32Zm0,1.73c.21.21.32.48.32.79s-.11.57-.32.79-.48.32-.79.32-.57-.11-.79-.32c-.21-.21-.32-.48-.32-.79s.11-.57.32-.79.48-.32.79-.32.57.11.79.32Zm0,1.73c.21.21.32.48.32.79s-.11.58-.32.79c-.21.21-.48.32-.79.32s-.57-.11-.79-.32c-.21-.21-.32-.48-.32-.79s.11-.57.32-.79c.21-.21.48-.32.79-.32s.57.11.79.32Zm1.73-5.2c.21.21.32.48.32.79s-.11.58-.32.79-.48.32-.79.32-.58-.11-.79-.32c-.21-.21-.32-.48-.32-.79s.11-.57.32-.79c.21-.21.48-.32.79-.32s.57.11.79.32Zm1.73-1.73c.21.21.32.48.32.79s-.11.57-.32.79c-.21.21-.48.32-.79.32s-.57-.11-.79-.32-.32-.48-.32-.79.11-.57.32-.79c.21-.21.48-.32.79-.32s.57.11.79.32Zm1.73,0c.21.21.32.48.32.79s-.11.57-.32.79-.48.32-.79.32-.57-.11-.79-.32c-.21-.21-.32-.48-.32-.79s.11-.57.32-.79c.21-.21.48-.32.79-.32s.57.11.79.32Zm1.73,1.73c.21.21.32.48.32.79s-.11.58-.32.79c-.21.21-.48.32-.79.32s-.58-.11-.79-.32c-.21-.21-.32-.48-.32-.79s.11-.57.32-.79c.21-.21.48-.32.79-.32s.57.11.79.32Zm0,1.73c.21.21.32.48.32.79s-.11.57-.32.79c-.21.21-.48.32-.79.32s-.58-.11-.79-.32c-.21-.21-.32-.48-.32-.79s.11-.57.32-.79c.21-.21.48-.32.79-.32s.57.11.79.32Zm0,1.73c.21.21.32.48.32.79s-.11.57-.32.79c-.21.21-.48.32-.79.32s-.58-.11-.79-.32c-.21-.21-.32-.48-.32-.79s.11-.57.32-.79.48-.32.79-.32.57.11.79.32Zm0,1.73c.21.21.32.48.32.79s-.11.58-.32.79c-.21.21-.48.32-.79.32s-.58-.11-.79-.32c-.21-.21-.32-.48-.32-.79s.11-.57.32-.79c.21-.21.48-.32.79-.32s.57.11.79.32Z"/>
      <path class="cls-1" d="m74.63.32c.21.21.32.48.32.79s-.11.57-.32.79c-.21.21-.48.32-.79.32s-.57-.11-.79-.32-.32-.48-.32-.79.11-.57.32-.79.48-.32.79-.32.57.11.79.32Zm0,1.73c.21.21.32.48.32.79s-.11.57-.32.79c-.21.21-.48.32-.79.32s-.57-.11-.79-.32-.32-.48-.32-.79.11-.57.32-.79c.21-.21.48-.32.79-.32s.57.11.79.32Zm0,1.73c.21.21.32.48.32.79s-.11.58-.32.79-.48.32-.79.32-.57-.11-.79-.32c-.21-.21-.32-.48-.32-.79s.11-.57.32-.79.48-.32.79-.32.57.11.79.32Zm0,1.73c.21.21.32.48.32.79s-.11.57-.32.79c-.21.21-.48.32-.79.32s-.57-.11-.79-.32-.32-.48-.32-.79.11-.57.32-.79.48-.32.79-.32.57.11.79.32Zm0,1.73c.21.21.32.48.32.79s-.11.57-.32.79c-.21.21-.48.32-.79.32s-.57-.11-.79-.32-.32-.48-.32-.79.11-.57.32-.79c.21-.21.48-.32.79-.32s.57.11.79.32Zm0,1.73c.21.21.32.48.32.79s-.11.58-.32.79-.48.32-.79.32-.57-.11-.79-.32c-.21-.21-.32-.48-.32-.79s.11-.57.32-.79c.21-.21.48-.32.79-.32s.57.11.79.32Zm1.73-3.46c.21.21.32.48.32.79s-.11.57-.32.79-.48.32-.79.32-.57-.11-.79-.32-.32-.48-.32-.79.11-.57.32-.79.48-.32.79-.32.57.11.79.32Zm1.73-1.73c.21.21.32.48.32.79s-.11.58-.32.79c-.21.21-.48.32-.79.32s-.57-.11-.79-.32c-.21-.21-.32-.48-.32-.79s.11-.57.32-.79c.21-.21.48-.32.79-.32s.57.11.79.32Zm0,1.73c.21.21.32.48.32.79s-.11.57-.32.79-.48.32-.79.32-.57-.11-.79-.32c-.21-.21-.32-.48-.32-.79s.11-.57.32-.79c.21-.21.48-.32.79-.32s.57.11.79.32Zm1.73-3.46c.21.21.32.48.32.79s-.11.57-.32.79c-.21.21-.48.32-.79.32s-.57-.11-.79-.32-.32-.48-.32-.79.11-.57.32-.79c.21-.21.48-.32.79-.32s.57.11.79.32Zm0,5.2c.21.21.32.48.32.79s-.11.57-.32.79c-.21.21-.48.32-.79.32s-.57-.11-.79-.32-.32-.48-.32-.79.11-.57.32-.79c.21-.21.48-.32.79-.32s.57.11.79.32Zm1.73-6.93c.21.21.32.48.32.79s-.11.57-.32.79-.48.32-.79.32-.57-.11-.79-.32-.32-.48-.32-.79.11-.57.32-.79.48-.32.79-.32.57.11.79.32Zm0,8.66c.21.21.32.48.32.79s-.11.58-.32.79c-.21.21-.48.32-.79.32s-.57-.11-.79-.32c-.21-.21-.32-.48-.32-.79s.11-.57.32-.79c.21-.21.48-.32.79-.32s.57.11.79.32Z"/>
      <path class="cls-1" d="m85.02,7.25c.21.21.32.48.32.79s-.11.57-.32.79-.48.32-.79.32-.57-.11-.79-.32c-.21-.21-.32-.48-.32-.79s.11-.57.32-.79.48-.32.79-.32.57.11.79.32Zm1.73-5.2c.21.21.32.48.32.79s-.11.57-.32.79c-.21.21-.48.32-.79.32s-.58-.11-.79-.32c-.21-.21-.32-.48-.32-.79s.11-.57.32-.79.48-.32.79-.32.57.11.79.32Zm0,3.46c.21.21.32.48.32.79s-.11.57-.32.79c-.21.21-.48.32-.79.32s-.58-.11-.79-.32c-.21-.21-.32-.48-.32-.79s.11-.57.32-.79c.21-.21.48-.32.79-.32s.57.11.79.32Zm0,3.46c.21.21.32.48.32.79s-.11.58-.32.79-.48.32-.79.32-.58-.11-.79-.32c-.21-.21-.32-.48-.32-.79s.11-.57.32-.79c.21-.21.48-.32.79-.32s.57.11.79.32Zm1.73-6.93c.21.21.32.48.32.79s-.11.57-.32.79c-.21.21-.48.32-.79.32s-.57-.11-.79-.32-.32-.48-.32-.79.11-.57.32-.79c.21-.21.48-.32.79-.32s.57.11.79.32Zm0,3.46c.21.21.32.48.32.79s-.11.57-.32.79c-.21.21-.48.32-.79.32s-.57-.11-.79-.32-.32-.48-.32-.79.11-.57.32-.79.48-.32.79-.32.57.11.79.32Zm0,3.46c.21.21.32.48.32.79s-.11.58-.32.79-.48.32-.79.32-.57-.11-.79-.32c-.21-.21-.32-.48-.32-.79s.11-.57.32-.79c.21-.21.48-.32.79-.32s.57.11.79.32Zm1.73-6.93c.21.21.32.48.32.79s-.11.57-.32.79-.48.32-.79.32-.57-.11-.79-.32c-.21-.21-.32-.48-.32-.79s.11-.57.32-.79c.21-.21.48-.32.79-.32s.57.11.79.32Zm0,3.46c.21.21.32.48.32.79s-.11.57-.32.79-.48.32-.79.32-.57-.11-.79-.32c-.21-.21-.32-.48-.32-.79s.11-.57.32-.79c.21-.21.48-.32.79-.32s.57.11.79.32Zm1.73-1.73c.21.21.32.48.32.79s-.11.58-.32.79c-.21.21-.48.32-.79.32s-.58-.11-.79-.32c-.21-.21-.32-.48-.32-.79s.11-.57.32-.79c.21-.21.48-.32.79-.32s.57.11.79.32Zm0,1.73c.21.21.32.48.32.79s-.11.57-.32.79c-.21.21-.48.32-.79.32s-.58-.11-.79-.32c-.21-.21-.32-.48-.32-.79s.11-.57.32-.79c.21-.21.48-.32.79-.32s.57.11.79.32Zm0,1.73c.21.21.32.48.32.79s-.11.57-.32.79c-.21.21-.48.32-.79.32s-.58-.11-.79-.32c-.21-.21-.32-.48-.32-.79s.11-.57.32-.79.48-.32.79-.32.57.11.79.32Zm0,1.73c.21.21.32.48.32.79s-.11.58-.32.79c-.21.21-.48.32-.79.32s-.58-.11-.79-.32c-.21-.21-.32-.48-.32-.79s.11-.57.32-.79c.21-.21.48-.32.79-.32s.57.11.79.32Z"/>
      <path class="cls-1" d="m95.41,2.05c.21.21.32.48.32.79s-.11.57-.32.79c-.21.21-.48.32-.79.32s-.57-.11-.79-.32-.32-.48-.32-.79.11-.57.32-.79c.21-.21.48-.32.79-.32s.57.11.79.32Zm0,6.93c.21.21.32.48.32.79s-.11.58-.32.79-.48.32-.79.32-.57-.11-.79-.32c-.21-.21-.32-.48-.32-.79s.11-.57.32-.79c.21-.21.48-.32.79-.32s.57.11.79.32Zm1.73-6.93c.21.21.32.48.32.79s-.11.57-.32.79-.48.32-.79.32-.57-.11-.79-.32-.32-.48-.32-.79.11-.57.32-.79c.21-.21.48-.32.79-.32s.57.11.79.32Zm0,1.73c.21.21.32.48.32.79s-.11.58-.32.79c-.21.21-.48.32-.79.32s-.57-.11-.79-.32c-.21-.21-.32-.48-.32-.79s.11-.57.32-.79.48-.32.79-.32.57.11.79.32Zm0,1.73c.21.21.32.48.32.79s-.11.57-.32.79-.48.32-.79.32-.57-.11-.79-.32-.32-.48-.32-.79.11-.57.32-.79.48-.32.79-.32.57.11.79.32Zm0,1.73c.21.21.32.48.32.79s-.11.57-.32.79-.48.32-.79.32-.57-.11-.79-.32-.32-.48-.32-.79.11-.57.32-.79c.21-.21.48-.32.79-.32s.57.11.79.32Zm0,1.73c.21.21.32.48.32.79s-.11.58-.32.79c-.21.21-.48.32-.79.32s-.57-.11-.79-.32c-.21-.21-.32-.48-.32-.79s.11-.57.32-.79c.21-.21.48-.32.79-.32s.57.11.79.32Zm1.73-5.2c.21.21.32.48.32.79s-.11.58-.32.79c-.21.21-.48.32-.79.32s-.57-.11-.79-.32c-.21-.21-.32-.48-.32-.79s.11-.57.32-.79c.21-.21.48-.32.79-.32s.57.11.79.32Zm0,5.2c.21.21.32.48.32.79s-.11.58-.32.79c-.21.21-.48.32-.79.32s-.57-.11-.79-.32c-.21-.21-.32-.48-.32-.79s.11-.57.32-.79c.21-.21.48-.32.79-.32s.57.11.79.32Zm1.73-6.93c.21.21.32.48.32.79s-.11.57-.32.79c-.21.21-.48.32-.79.32s-.57-.11-.79-.32-.32-.48-.32-.79.11-.57.32-.79c.21-.21.48-.32.79-.32s.57.11.79.32Zm1.73,0c.21.21.32.48.32.79s-.11.57-.32.79-.48.32-.79.32-.57-.11-.79-.32-.32-.48-.32-.79.11-.57.32-.79c.21-.21.48-.32.79-.32s.57.11.79.32Z"/>
      <path class="cls-1" d="m105.8,7.25c.21.21.32.48.32.79s-.11.57-.32.79-.48.32-.79.32-.57-.11-.79-.32c-.21-.21-.32-.48-.32-.79s.11-.57.32-.79.48-.32.79-.32.57.11.79.32Zm1.73-5.2c.21.21.32.48.32.79s-.11.57-.32.79c-.21.21-.48.32-.79.32s-.58-.11-.79-.32c-.21-.21-.32-.48-.32-.79s.11-.57.32-.79.48-.32.79-.32.57.11.79.32Zm0,3.46c.21.21.32.48.32.79s-.11.57-.32.79c-.21.21-.48.32-.79.32s-.58-.11-.79-.32c-.21-.21-.32-.48-.32-.79s.11-.57.32-.79c.21-.21.48-.32.79-.32s.57.11.79.32Zm0,3.46c.21.21.32.48.32.79s-.11.58-.32.79-.48.32-.79.32-.58-.11-.79-.32c-.21-.21-.32-.48-.32-.79s.11-.57.32-.79c.21-.21.48-.32.79-.32s.57.11.79.32Zm1.73-6.93c.21.21.32.48.32.79s-.11.57-.32.79c-.21.21-.48.32-.79.32s-.57-.11-.79-.32-.32-.48-.32-.79.11-.57.32-.79c.21-.21.48-.32.79-.32s.57.11.79.32Zm0,3.46c.21.21.32.48.32.79s-.11.57-.32.79c-.21.21-.48.32-.79.32s-.57-.11-.79-.32-.32-.48-.32-.79.11-.57.32-.79.48-.32.79-.32.57.11.79.32Zm0,3.46c.21.21.32.48.32.79s-.11.58-.32.79-.48.32-.79.32-.57-.11-.79-.32c-.21-.21-.32-.48-.32-.79s.11-.57.32-.79c.21-.21.48-.32.79-.32s.57.11.79.32Zm1.73-6.93c.21.21.32.48.32.79s-.11.57-.32.79-.48.32-.79.32-.57-.11-.79-.32c-.21-.21-.32-.48-.32-.79s.11-.57.32-.79c.21-.21.48-.32.79-.32s.57.11.79.32Zm0,3.46c.21.21.32.48.32.79s-.11.57-.32.79-.48.32-.79.32-.57-.11-.79-.32c-.21-.21-.32-.48-.32-.79s.11-.57.32-.79c.21-.21.48-.32.79-.32s.57.11.79.32Zm1.73-1.73c.21.21.32.48.32.79s-.11.58-.32.79c-.21.21-.48.32-.79.32s-.58-.11-.79-.32c-.21-.21-.32-.48-.32-.79s.11-.57.32-.79c.21-.21.48-.32.79-.32s.57.11.79.32Zm0,1.73c.21.21.32.48.32.79s-.11.57-.32.79c-.21.21-.48.32-.79.32s-.58-.11-.79-.32c-.21-.21-.32-.48-.32-.79s.11-.57.32-.79c.21-.21.48-.32.79-.32s.57.11.79.32Zm0,1.73c.21.21.32.48.32.79s-.11.57-.32.79c-.21.21-.48.32-.79.32s-.58-.11-.79-.32c-.21-.21-.32-.48-.32-.79s.11-.57.32-.79.48-.32.79-.32.57.11.79.32Zm0,1.73c.21.21.32.48.32.79s-.11.58-.32.79c-.21.21-.48.32-.79.32s-.58-.11-.79-.32c-.21-.21-.32-.48-.32-.79s.11-.57.32-.79c.21-.21.48-.32.79-.32s.57.11.79.32Z"/>
      <path class="cls-1" d="m116.19,3.78c.21.21.32.48.32.79s-.11.58-.32.79-.48.32-.79.32-.57-.11-.79-.32c-.21-.21-.32-.48-.32-.79s.11-.57.32-.79.48-.32.79-.32.57.11.79.32Zm0,1.73c.21.21.32.48.32.79s-.11.57-.32.79c-.21.21-.48.32-.79.32s-.57-.11-.79-.32-.32-.48-.32-.79.11-.57.32-.79.48-.32.79-.32.57.11.79.32Zm0,1.73c.21.21.32.48.32.79s-.11.57-.32.79c-.21.21-.48.32-.79.32s-.57-.11-.79-.32-.32-.48-.32-.79.11-.57.32-.79c.21-.21.48-.32.79-.32s.57.11.79.32Zm1.73-5.2c.21.21.32.48.32.79s-.11.57-.32.79-.48.32-.79.32-.57-.11-.79-.32-.32-.48-.32-.79.11-.57.32-.79c.21-.21.48-.32.79-.32s.57.11.79.32Zm0,6.93c.21.21.32.48.32.79s-.11.58-.32.79c-.21.21-.48.32-.79.32s-.57-.11-.79-.32c-.21-.21-.32-.48-.32-.79s.11-.57.32-.79c.21-.21.48-.32.79-.32s.57.11.79.32Zm1.73-6.93c.21.21.32.48.32.79s-.11.57-.32.79-.48.32-.79.32-.57-.11-.79-.32c-.21-.21-.32-.48-.32-.79s.11-.57.32-.79.48-.32.79-.32.57.11.79.32Zm0,6.93c.21.21.32.48.32.79s-.11.58-.32.79c-.21.21-.48.32-.79.32s-.57-.11-.79-.32c-.21-.21-.32-.48-.32-.79s.11-.57.32-.79c.21-.21.48-.32.79-.32s.57.11.79.32Zm1.73-6.93c.21.21.32.48.32.79s-.11.57-.32.79c-.21.21-.48.32-.79.32s-.57-.11-.79-.32-.32-.48-.32-.79.11-.57.32-.79c.21-.21.48-.32.79-.32s.57.11.79.32Zm0,6.93c.21.21.32.48.32.79s-.11.58-.32.79-.48.32-.79.32-.57-.11-.79-.32c-.21-.21-.32-.48-.32-.79s.11-.57.32-.79c.21-.21.48-.32.79-.32s.57.11.79.32Zm1.73-5.2c.21.21.32.48.32.79s-.11.58-.32.79c-.21.21-.48.32-.79.32s-.57-.11-.79-.32c-.21-.21-.32-.48-.32-.79s.11-.57.32-.79.48-.32.79-.32.57.11.79.32Zm0,1.73c.21.21.32.48.32.79s-.11.57-.32.79-.48.32-.79.32-.57-.11-.79-.32-.32-.48-.32-.79.11-.57.32-.79.48-.32.79-.32.57.11.79.32Zm0,1.73c.21.21.32.48.32.79s-.11.57-.32.79-.48.32-.79.32-.57-.11-.79-.32-.32-.48-.32-.79.11-.57.32-.79c.21-.21.48-.32.79-.32s.57.11.79.32Z"/>
      <path class="cls-1" d="m126.58,3.78c.21.21.32.48.32.79s-.11.58-.32.79-.48.32-.79.32-.57-.11-.79-.32c-.21-.21-.32-.48-.32-.79s.11-.57.32-.79.48-.32.79-.32.57.11.79.32Zm0,1.73c.21.21.32.48.32.79s-.11.57-.32.79c-.21.21-.48.32-.79.32s-.57-.11-.79-.32-.32-.48-.32-.79.11-.57.32-.79.48-.32.79-.32.57.11.79.32Zm1.73-3.46c.21.21.32.48.32.79s-.11.57-.32.79-.48.32-.79.32-.57-.11-.79-.32-.32-.48-.32-.79.11-.57.32-.79c.21-.21.48-.32.79-.32s.57.11.79.32Zm0,5.2c.21.21.32.48.32.79s-.11.57-.32.79-.48.32-.79.32-.57-.11-.79-.32-.32-.48-.32-.79.11-.57.32-.79c.21-.21.48-.32.79-.32s.57.11.79.32Zm0,3.46c.21.21.32.48.32.79s-.11.57-.32.79c-.21.21-.48.32-.79.32s-.57-.11-.79-.32c-.21-.21-.32-.48-.32-.79s.11-.58.32-.79c.21-.21.48-.32.79-.32s.57.11.79.32Zm1.73-8.66c.21.21.32.48.32.79s-.11.57-.32.79-.48.32-.79.32-.57-.11-.79-.32c-.21-.21-.32-.48-.32-.79s.11-.57.32-.79.48-.32.79-.32.57.11.79.32Zm0,5.2c.21.21.32.48.32.79s-.11.57-.32.79-.48.32-.79.32-.57-.11-.79-.32c-.21-.21-.32-.48-.32-.79s.11-.57.32-.79.48-.32.79-.32.57.11.79.32Zm0,3.46c.21.21.32.48.32.79s-.11.57-.32.79c-.21.21-.48.32-.79.32s-.57-.11-.79-.32c-.21-.21-.32-.48-.32-.79s.11-.58.32-.79c.21-.21.48-.32.79-.32s.57.11.79.32Zm1.73-8.66c.21.21.32.48.32.79s-.11.57-.32.79c-.21.21-.48.32-.79.32s-.57-.11-.79-.32-.32-.48-.32-.79.11-.57.32-.79c.21-.21.48-.32.79-.32s.57.11.79.32Zm0,5.2c.21.21.32.48.32.79s-.11.57-.32.79c-.21.21-.48.32-.79.32s-.57-.11-.79-.32-.32-.48-.32-.79.11-.57.32-.79c.21-.21.48-.32.79-.32s.57.11.79.32Zm0,3.46c.21.21.32.48.32.79s-.11.57-.32.79-.48.32-.79.32-.57-.11-.79-.32c-.21-.21-.32-.48-.32-.79s.11-.58.32-.79c.21-.21.48-.32.79-.32s.57.11.79.32Zm1.73-8.66c.21.21.32.48.32.79s-.11.57-.32.79-.48.32-.79.32-.57-.11-.79-.32-.32-.48-.32-.79.11-.57.32-.79c.21-.21.48-.32.79-.32s.57.11.79.32Zm0,1.73c.21.21.32.48.32.79s-.11.58-.32.79c-.21.21-.48.32-.79.32s-.57-.11-.79-.32c-.21-.21-.32-.48-.32-.79s.11-.57.32-.79.48-.32.79-.32.57.11.79.32Zm0,1.73c.21.21.32.48.32.79s-.11.57-.32.79-.48.32-.79.32-.57-.11-.79-.32-.32-.48-.32-.79.11-.57.32-.79.48-.32.79-.32.57.11.79.32Zm0,1.73c.21.21.32.48.32.79s-.11.57-.32.79-.48.32-.79.32-.57-.11-.79-.32-.32-.48-.32-.79.11-.57.32-.79c.21-.21.48-.32.79-.32s.57.11.79.32Zm0,1.73c.21.21.32.48.32.79s-.11.58-.32.79c-.21.21-.48.32-.79.32s-.57-.11-.79-.32c-.21-.21-.32-.48-.32-.79s.11-.57.32-.79c.21-.21.48-.32.79-.32s.57.11.79.32Z"/>
      <path class="cls-1" d="m136.97.32c.21.21.32.48.32.79s-.11.57-.32.79-.48.32-.79.32-.57-.11-.79-.32c-.21-.21-.32-.48-.32-.79s.11-.57.32-.79c.21-.21.48-.32.79-.32s.57.11.79.32Zm0,8.66c.21.21.32.48.32.79s-.11.58-.32.79c-.21.21-.48.32-.79.32s-.57-.11-.79-.32c-.21-.21-.32-.48-.32-.79s.11-.57.32-.79c.21-.21.48-.32.79-.32s.57.11.79.32Zm1.73-8.66c.21.21.32.48.32.79s-.11.57-.32.79c-.21.21-.48.32-.79.32s-.58-.11-.79-.32c-.21-.21-.32-.48-.32-.79s.11-.57.32-.79c.21-.21.48-.32.79-.32s.57.11.79.32Zm0,8.66c.21.21.32.48.32.79s-.11.58-.32.79-.48.32-.79.32-.58-.11-.79-.32c-.21-.21-.32-.48-.32-.79s.11-.57.32-.79c.21-.21.48-.32.79-.32s.57.11.79.32Zm1.73-8.66c.21.21.32.48.32.79s-.11.57-.32.79c-.21.21-.48.32-.79.32s-.57-.11-.79-.32-.32-.48-.32-.79.11-.57.32-.79.48-.32.79-.32.57.11.79.32Zm0,1.73c.21.21.32.48.32.79s-.11.57-.32.79c-.21.21-.48.32-.79.32s-.57-.11-.79-.32-.32-.48-.32-.79.11-.57.32-.79c.21-.21.48-.32.79-.32s.57.11.79.32Zm0,1.73c.21.21.32.48.32.79s-.11.58-.32.79-.48.32-.79.32-.57-.11-.79-.32c-.21-.21-.32-.48-.32-.79s.11-.57.32-.79.48-.32.79-.32.57.11.79.32Zm0,1.73c.21.21.32.48.32.79s-.11.57-.32.79c-.21.21-.48.32-.79.32s-.57-.11-.79-.32-.32-.48-.32-.79.11-.57.32-.79.48-.32.79-.32.57.11.79.32Zm0,1.73c.21.21.32.48.32.79s-.11.57-.32.79c-.21.21-.48.32-.79.32s-.57-.11-.79-.32-.32-.48-.32-.79.11-.57.32-.79c.21-.21.48-.32.79-.32s.57.11.79.32Zm0,1.73c.21.21.32.48.32.79s-.11.58-.32.79-.48.32-.79.32-.57-.11-.79-.32c-.21-.21-.32-.48-.32-.79s.11-.57.32-.79c.21-.21.48-.32.79-.32s.57.11.79.32Zm1.73,0c.21.21.32.48.32.79s-.11.58-.32.79c-.21.21-.48.32-.79.32s-.57-.11-.79-.32-.32-.48-.32-.79.11-.57.32-.79.48-.32.79-.32.57.11.79.32Zm1.73,0c.21.21.32.48.32.79s-.11.58-.32.79c-.21.21-.48.32-.79.32s-.58-.11-.79-.32c-.21-.21-.32-.48-.32-.79s.11-.57.32-.79c.21-.21.48-.32.79-.32s.57.11.79.32Z"/>
      <path class="cls-1" d="m147.36,7.25c.21.21.32.48.32.79s-.11.57-.32.79c-.21.21-.48.32-.79.32s-.57-.11-.79-.32-.32-.48-.32-.79.11-.57.32-.79c.21-.21.48-.32.79-.32s.57.11.79.32Zm1.73-5.2c.21.21.32.48.32.79s-.11.57-.32.79-.48.32-.79.32-.57-.11-.79-.32-.32-.48-.32-.79.11-.57.32-.79c.21-.21.48-.32.79-.32s.57.11.79.32Zm0,3.46c.21.21.32.48.32.79s-.11.57-.32.79-.48.32-.79.32-.57-.11-.79-.32-.32-.48-.32-.79.11-.57.32-.79.48-.32.79-.32.57.11.79.32Zm0,3.46c.21.21.32.48.32.79s-.11.58-.32.79c-.21.21-.48.32-.79.32s-.57-.11-.79-.32c-.21-.21-.32-.48-.32-.79s.11-.57.32-.79c.21-.21.48-.32.79-.32s.57.11.79.32Zm1.73-6.93c.21.21.32.48.32.79s-.11.57-.32.79-.48.32-.79.32-.57-.11-.79-.32c-.21-.21-.32-.48-.32-.79s.11-.57.32-.79.48-.32.79-.32.57.11.79.32Zm0,3.46c.21.21.32.48.32.79s-.11.57-.32.79-.48.32-.79.32-.57-.11-.79-.32c-.21-.21-.32-.48-.32-.79s.11-.57.32-.79c.21-.21.48-.32.79-.32s.57.11.79.32Zm0,3.46c.21.21.32.48.32.79s-.11.58-.32.79c-.21.21-.48.32-.79.32s-.57-.11-.79-.32c-.21-.21-.32-.48-.32-.79s.11-.57.32-.79c.21-.21.48-.32.79-.32s.57.11.79.32Zm1.73-6.93c.21.21.32.48.32.79s-.11.57-.32.79c-.21.21-.48.32-.79.32s-.57-.11-.79-.32-.32-.48-.32-.79.11-.57.32-.79c.21-.21.48-.32.79-.32s.57.11.79.32Zm0,3.46c.21.21.32.48.32.79s-.11.57-.32.79c-.21.21-.48.32-.79.32s-.57-.11-.79-.32-.32-.48-.32-.79.11-.57.32-.79.48-.32.79-.32.57.11.79.32Zm1.73-1.73c.21.21.32.48.32.79s-.11.58-.32.79c-.21.21-.48.32-.79.32s-.57-.11-.79-.32c-.21-.21-.32-.48-.32-.79s.11-.57.32-.79.48-.32.79-.32.57.11.79.32Zm0,1.73c.21.21.32.48.32.79s-.11.57-.32.79-.48.32-.79.32-.57-.11-.79-.32-.32-.48-.32-.79.11-.57.32-.79.48-.32.79-.32.57.11.79.32Zm0,1.73c.21.21.32.48.32.79s-.11.57-.32.79-.48.32-.79.32-.57-.11-.79-.32-.32-.48-.32-.79.11-.57.32-.79c.21-.21.48-.32.79-.32s.57.11.79.32Zm0,1.73c.21.21.32.48.32.79s-.11.58-.32.79c-.21.21-.48.32-.79.32s-.57-.11-.79-.32c-.21-.21-.32-.48-.32-.79s.11-.57.32-.79c.21-.21.48-.32.79-.32s.57.11.79.32Z"/>
      <path class="cls-1" d="m157.75,2.05c.21.21.32.48.32.79s-.11.57-.32.79-.48.32-.79.32-.57-.11-.79-.32c-.21-.21-.32-.48-.32-.79s.11-.57.32-.79.48-.32.79-.32.57.11.79.32Zm0,1.73c.21.21.32.48.32.79s-.11.58-.32.79c-.21.21-.48.32-.79.32s-.57-.11-.79-.32c-.21-.21-.32-.48-.32-.79s.11-.57.32-.79c.21-.21.48-.32.79-.32s.57.11.79.32Zm0,1.73c.21.21.32.48.32.79s-.11.57-.32.79-.48.32-.79.32-.57-.11-.79-.32c-.21-.21-.32-.48-.32-.79s.11-.57.32-.79c.21-.21.48-.32.79-.32s.57.11.79.32Zm0,1.73c.21.21.32.48.32.79s-.11.57-.32.79-.48.32-.79.32-.57-.11-.79-.32c-.21-.21-.32-.48-.32-.79s.11-.57.32-.79.48-.32.79-.32.57.11.79.32Zm0,1.73c.21.21.32.48.32.79s-.11.58-.32.79c-.21.21-.48.32-.79.32s-.57-.11-.79-.32c-.21-.21-.32-.48-.32-.79s.11-.57.32-.79c.21-.21.48-.32.79-.32s.57.11.79.32Zm1.73-5.2c.21.21.32.48.32.79s-.11.58-.32.79-.48.32-.79.32-.58-.11-.79-.32c-.21-.21-.32-.48-.32-.79s.11-.57.32-.79c.21-.21.48-.32.79-.32s.57.11.79.32Zm1.73-1.73c.21.21.32.48.32.79s-.11.57-.32.79c-.21.21-.48.32-.79.32s-.57-.11-.79-.32-.32-.48-.32-.79.11-.57.32-.79c.21-.21.48-.32.79-.32s.57.11.79.32Zm1.73,0c.21.21.32.48.32.79s-.11.57-.32.79-.48.32-.79.32-.57-.11-.79-.32c-.21-.21-.32-.48-.32-.79s.11-.57.32-.79c.21-.21.48-.32.79-.32s.57.11.79.32Zm1.73,1.73c.21.21.32.48.32.79s-.11.58-.32.79c-.21.21-.48.32-.79.32s-.58-.11-.79-.32c-.21-.21-.32-.48-.32-.79s.11-.57.32-.79c.21-.21.48-.32.79-.32s.57.11.79.32Zm0,1.73c.21.21.32.48.32.79s-.11.57-.32.79c-.21.21-.48.32-.79.32s-.58-.11-.79-.32c-.21-.21-.32-.48-.32-.79s.11-.57.32-.79c.21-.21.48-.32.79-.32s.57.11.79.32Zm0,1.73c.21.21.32.48.32.79s-.11.57-.32.79c-.21.21-.48.32-.79.32s-.58-.11-.79-.32c-.21-.21-.32-.48-.32-.79s.11-.57.32-.79.48-.32.79-.32.57.11.79.32Zm0,1.73c.21.21.32.48.32.79s-.11.58-.32.79c-.21.21-.48.32-.79.32s-.58-.11-.79-.32c-.21-.21-.32-.48-.32-.79s.11-.57.32-.79c.21-.21.48-.32.79-.32s.57.11.79.32Z"/>
    </g>
  </g>
</svg>