<?xml version="1.0" standalone="no"?>
<!DOCTYPE svg PUBLIC "-//W3C//DTD SVG 20010904//EN"
 "http://www.w3.org/TR/2001/REC-SVG-20010904/DTD/svg10.dtd">
<svg version="1.0" xmlns="http://www.w3.org/2000/svg"
 width="700.000000pt" height="700.000000pt" viewBox="0 0 700.000000 700.000000"
 preserveAspectRatio="xMidYMid meet">
<metadata>
Created by potrace 1.14, written by Peter Selinger 2001-2017
</metadata>
<g transform="translate(0.000000,700.000000) scale(0.100000,-0.100000)"
fill="#000000" stroke="none">
<path d="M1590 4924 c-52 -8 -142 -31 -199 -50 -468 -156 -807 -492 -956 -947
-49 -150 -68 -278 -68 -447 0 -225 41 -411 133 -607 205 -434 584 -726 1065
-820 133 -26 396 -23 531 5 217 46 387 120 588 254 39 26 401 380 981 958 558
556 946 935 985 962 166 116 330 168 531 168 251 0 464 -87 640 -260 122 -121
199 -254 245 -426 28 -103 26 -361 -3 -459 -64 -215 -198 -399 -376 -516 -91
-60 -153 -87 -277 -121 -100 -28 -322 -30 -422 -5 -209 52 -321 122 -543 338
-89 87 -178 165 -196 173 -102 42 -204 25 -287 -49 -68 -61 -96 -127 -90 -215
3 -36 13 -81 23 -100 23 -47 290 -316 391 -395 188 -148 403 -246 640 -291
123 -23 436 -15 574 14 270 58 524 204 735 423 325 337 465 817 370 1270 -90
426 -396 816 -789 1003 -512 245 -1118 172 -1550 -187 -33 -27 -464 -450 -958
-940 -512 -508 -920 -906 -950 -925 -88 -57 -211 -111 -304 -133 -110 -27
-292 -30 -400 -6 -345 75 -623 353 -700 698 -25 112 -23 302 5 409 74 282 277
513 547 621 223 90 495 84 709 -15 121 -56 181 -102 352 -269 168 -164 205
-189 295 -202 102 -15 221 52 269 153 31 64 31 158 0 227 -28 62 -315 352
-440 444 -156 115 -366 205 -592 256 -106 24 -386 29 -509 9z"/>
</g>
</svg>
