<?xml version="1.0" standalone="no"?>
<!DOCTYPE svg PUBLIC "-//W3C//DTD SVG 20010904//EN"
 "http://www.w3.org/TR/2001/REC-SVG-20010904/DTD/svg10.dtd">
<svg version="1.0" xmlns="http://www.w3.org/2000/svg"
 width="700.000000pt" height="700.000000pt" viewBox="0 0 700.000000 700.000000"
 preserveAspectRatio="xMidYMid meet">
<metadata>
Created by potrace 1.14, written by Peter Selinger 2001-2017
</metadata>
<g transform="translate(0.000000,700.000000) scale(0.100000,-0.100000)"
fill="#000000" stroke="none">
<path d="M0 3500 l0 -3500 3500 0 3500 0 0 3500 0 3500 -3500 0 -3500 0 0
-3500z m2929 2241 c70 -22 141 -65 189 -114 l32 -33 48 44 c26 25 80 61 120
80 63 30 86 36 166 40 151 8 254 -27 351 -119 l51 -48 43 43 c90 91 203 131
353 124 87 -4 106 -9 171 -41 40 -20 93 -56 117 -81 l44 -45 46 43 c94 88 193
126 327 126 209 0 383 -130 444 -331 18 -58 21 -88 17 -163 -3 -52 -13 -110
-23 -136 -46 -117 -153 -227 -263 -270 -79 -32 -227 -39 -308 -15 -82 24 -123
47 -185 103 l-54 49 -44 -44 c-25 -24 -79 -61 -120 -81 -74 -37 -76 -37 -200
-37 -121 0 -129 1 -194 32 -37 18 -91 55 -120 82 l-53 51 -40 -41 c-146 -150
-408 -174 -591 -52 -29 19 -64 48 -77 63 l-24 29 -18 -21 c-42 -47 -139 -109
-201 -128 -131 -40 -293 -21 -402 49 -136 88 -211 228 -211 396 0 168 75 308
211 396 108 69 271 89 398 50z m-748 -727 c78 -23 125 -50 182 -102 75 -70
123 -150 143 -239 41 -185 -19 -360 -161 -476 -94 -75 -146 -92 -295 -92 -120
0 -128 1 -193 32 -191 91 -301 299 -267 503 30 178 164 329 330 374 74 20 194
20 261 0z m699 -724 c81 -15 154 -53 215 -111 l55 -51 54 49 c142 130 343 158
521 74 218 -104 315 -363 225 -603 -11 -30 -45 -85 -76 -122 l-56 -68 30 -31
30 -30 54 45 c95 79 145 102 258 118 236 33 460 -119 515 -351 48 -204 -38
-409 -216 -516 -177 -106 -425 -75 -566 69 l-36 37 -51 -45 c-147 -133 -364
-162 -539 -73 -57 30 -158 129 -190 187 -96 176 -69 400 64 546 l48 53 -34 33
-35 34 -43 -40 c-59 -57 -98 -82 -163 -104 -233 -80 -482 25 -587 247 -28 60
-32 80 -35 173 -6 157 30 251 134 354 113 111 264 156 424 126z m2270 -1485
c119 -47 224 -153 271 -272 32 -78 34 -251 5 -329 -44 -120 -154 -232 -269
-276 -53 -20 -80 -23 -182 -23 -113 1 -124 2 -188 32 -91 43 -182 134 -228
228 -33 69 -34 72 -34 200 0 125 1 133 31 195 56 118 161 211 282 251 74 25
243 21 312 -6z m-2974 -719 c73 -19 144 -60 194 -111 l43 -44 51 45 c183 166
464 166 639 2 l49 -46 46 43 c85 81 197 125 322 125 125 0 229 -41 321 -127
l45 -42 37 37 c138 141 378 173 559 75 62 -34 157 -135 186 -197 52 -109 63
-212 37 -324 -51 -215 -229 -353 -456 -353 -133 0 -236 40 -325 129 l-41 41
-43 -44 c-47 -48 -131 -97 -198 -115 -62 -16 -198 -13 -262 5 -69 21 -131 57
-187 108 l-43 39 -52 -47 c-174 -158 -459 -157 -628 1 l-51 47 -32 -30 c-100
-95 -200 -134 -339 -134 -139 0 -238 41 -329 137 -60 64 -82 97 -107 164 -93
253 53 545 308 614 70 19 190 20 256 2z"/>
</g>
</svg>
