<svg xmlns="http://www.w3.org/2000/svg" data-name="Layer 2" viewBox="0 0 24 24"><g data-name="Layer 1"><path d="M0 0h24v24H0z" style="fill:#fff"/><path d="M22.75 11.98c0 1.19-.42 2.35-1.21 3.25-.03.04-.06.07-.1.11l-.06.06s-.06.07-.1.1l-.09.09-.09.09s0 .01-.02.01l-.08.07-.1.08-.08.06s-.04.03-.06.04-.03.03-.05.04-.07.06-.07.06l-.03.02-.1.07-.1.07s-.02.01-.03.02c-.03.02-.05.03-.08.05l-.1.06-.11.06-.05.03-.07.04h-.02l-.09.04-.08.04-.11.05-.12.05c-.15.06-.3.11-.46.15h-.02s-.06.02-.09.02c-.14.03-.28.06-.43.09h-.07c-.23.03-.46.05-.69.05h-.47s-.08-.02-.12-.02h-.08l-.1-.02-.12-.02c-.07-.01-.14-.03-.21-.04h-.05l-.04-.02c-.24-.06-.48-.14-.71-.23-.03-.01-.06-.03-.09-.04-.03-.01-.06-.02-.09-.04l-.06-.03s-.09-.04-.13-.06l-.09-.05c-.43-.23-.83-.52-1.17-.87l-.72-.72c-.08-.08-.14-.17-.19-.27 0-.02-.02-.04-.03-.06 0-.02-.02-.04-.02-.06a.955.955 0 0 1 0-.53c0-.02.01-.04.02-.06 0-.02.02-.04.03-.06.05-.1.11-.19.19-.27h.01c.17-.17.39-.27.62-.27.23 0 .46.07.63.22l.78.78.06.06.06.05.09.08s.06.05.09.07c.03.02.04.03.06.05.06.05.13.09.19.13.07.04.13.08.2.11s.14.07.21.1c.7.3 1.48.34 2.21.11.05-.02.1-.04.15-.05s.13-.05.2-.08l.07-.03c.07-.04.15-.08.22-.12.11-.07.21-.14.31-.21.07-.05.13-.11.19-.17l.09-.09c.06-.06.11-.11.16-.17.02-.02.03-.04.05-.06.07-.08.13-.16.18-.25.01-.02.03-.04.04-.06.01-.02.03-.04.04-.06l.04-.07.04-.07c.04-.07.07-.14.1-.2.01-.02.02-.05.03-.07 0-.02.02-.05.03-.07 0-.02.02-.05.03-.07s.02-.05.02-.08l.02-.07.06-.21c.02-.07.03-.15.04-.23 0-.04.01-.08.01-.12a3.092 3.092 0 0 0-.89-2.54c-.58-.59-1.38-.92-2.21-.92-.83 0-1.63.33-2.21.91l-1.64 1.64-.58.57-.66.66-.66.66-2.2 2.21-.06.06-.07.07-.06.06-.06.06a.18.18 0 0 1-.07.05c-.02.02-.04.04-.06.05l-.13.1-.06.04-.03.02c-.06.05-.13.09-.19.13s-.12.08-.18.11h-.03l-.18.12c-1.19.65-2.59.8-3.89.39-1.3-.4-2.37-1.32-2.98-2.53a4.946 4.946 0 0 1-.23-3.9 4.99 4.99 0 0 1 2.65-2.87c.07-.03.13-.06.2-.09l.11-.04.1-.04h.01l.11-.04.11-.04.08-.03h.02L5 7.21l.13-.03c.04 0 .07-.02.1-.02.1-.02.2-.04.3-.05.03 0 .06-.01.09-.01.11-.02.21-.03.33-.03H6.61c.12 0 .24.02.36.04.08.01.16.02.24.04l.09.02.08.02.08.02.16.04.21.06c.07.02.14.05.21.07l.1.04.09.04c.07.03.14.06.22.1.51.24.97.57 1.37.98l.72.72s.04.05.06.07c.02.02.04.05.06.08.02.03.03.05.05.08.01.03.03.05.04.08l.02.04c.02.05.03.1.04.16 0 .03 0 .05.01.08V10c0 .02 0 .05-.01.07s0 .03 0 .05c0 .02 0 .03-.01.05s-.02.06-.03.1l-.02.05-.02.04s-.03.05-.05.08c-.02.03-.02.03-.03.04s-.06.08-.09.11h-.01c-.17.17-.39.27-.62.27-.23 0-.46-.08-.64-.23l-.77-.76a3.111 3.111 0 0 0-2.64-.88c-.97.14-1.82.72-2.3 1.58l-.06.11s-.02.05-.03.07-.01.03-.02.04c-.01.03-.03.06-.04.09-.01.02-.02.04-.03.07 0 .02-.02.05-.03.07 0 .02-.02.04-.02.07 0 .02-.02.05-.02.07-.02.07-.04.14-.06.22-.02.07-.03.15-.04.23 0 .04-.01.08-.01.12-.01.11-.02.22-.02.33 0 .75.27 1.48.77 2.05.5.57 1.18.94 1.93 1.04.75.1 1.51-.07 2.14-.49l.07-.04c.06-.04.13-.09.19-.14l.06-.05c.06-.05.12-.1.17-.16l2.2-2.2.66-.65.66-.65 2.21-2.21a4.99 4.99 0 0 1 3.52-1.46c1.32 0 2.59.52 3.52 1.46.93.93 1.46 2.2 1.46 3.52Z" style="fill:#010101"/></g></svg>