<?xml version="1.0" encoding="UTF-8"?>
<svg id="Layer_2" data-name="Layer 2" xmlns="http://www.w3.org/2000/svg" viewBox="0 0 70.51 8.34">
  <defs>
    <style>
      .cls-1 {
        fill: #fff;
      }
    </style>
  </defs>
  <g id="Layer_1-2" data-name="Layer 1">
    <g>
      <path class="cls-1" d="m.12,4.93c.25.16.54.28.88.38.34.1.66.15.97.15.35,0,.62-.07.81-.2.19-.13.29-.31.29-.55,0-.14-.03-.26-.1-.36-.07-.1-.19-.19-.35-.27s-.4-.17-.71-.25c-.65-.19-1.11-.43-1.39-.71-.28-.28-.42-.65-.42-1.11,0-.36.09-.67.27-.94.18-.26.43-.47.75-.61.32-.14.7-.21,1.14-.21.32,0,.65.04.97.12s.6.19.83.33l-.17,1c-.22-.14-.47-.24-.76-.32s-.56-.12-.82-.12c-.31,0-.56.06-.73.18-.17.12-.25.29-.25.51,0,.13.03.23.09.33.06.09.16.17.31.25.15.08.36.16.62.24.48.14.86.3,1.14.47.29.17.5.37.63.59.13.22.2.48.2.79,0,.57-.2,1.02-.61,1.34s-.97.49-1.68.49c-.25,0-.51-.02-.76-.06-.26-.04-.5-.1-.72-.18-.22-.08-.4-.16-.55-.26l.12-1.04Z"/>
      <path class="cls-1" d="m7.39,6.48c-.49,0-.9-.08-1.25-.25-.35-.17-.62-.41-.81-.73-.19-.32-.28-.7-.28-1.13s.09-.79.26-1.11c.17-.32.42-.57.73-.75.31-.18.67-.27,1.07-.27s.72.08,1.01.24c.29.16.5.39.66.69s.23.65.23,1.05c0,.13,0,.27-.02.42h-2.82c.05.33.19.57.42.73.23.15.54.23.93.23.22,0,.44-.03.67-.08.23-.05.44-.12.63-.21l.11.85c-.2.1-.44.18-.72.23-.27.06-.55.09-.83.09Zm-.93-3.2c-.16.16-.26.38-.3.67h1.78c0-.06,0-.11-.02-.16-.04-.24-.13-.43-.27-.56-.15-.13-.34-.2-.57-.2-.25,0-.46.08-.62.24Z"/>
      <path class="cls-1" d="m9.97,2.35h1.11v.78c.1-.27.24-.47.43-.62.19-.15.41-.22.66-.22.08,0,.17,0,.25.02.09.02.16.04.21.06l-.1,1.07c-.16-.06-.33-.09-.51-.09-.29,0-.51.1-.67.31-.16.21-.24.5-.24.89v1.8h-1.14v-4Z"/>
      <path class="cls-1" d="m17.29,6.06c0,.75-.19,1.31-.57,1.7-.38.39-.94.58-1.69.58-.19,0-.39-.02-.59-.05-.2-.03-.38-.07-.55-.12s-.31-.11-.41-.17l.12-.96c.17.1.37.18.61.24.24.06.47.09.68.09.86,0,1.29-.42,1.29-1.26v-.39c-.14.23-.32.4-.54.52-.23.12-.49.18-.78.18-.36,0-.67-.09-.95-.27-.28-.18-.49-.42-.65-.74-.16-.31-.24-.67-.24-1.08s.08-.76.25-1.08.39-.57.68-.76c.28-.19.6-.28.96-.28.27,0,.52.06.74.18.22.12.4.3.53.53l.02-.59h1.09v3.71Zm-1.36-2.53c-.19-.21-.43-.31-.74-.31s-.54.1-.73.31c-.19.21-.28.47-.28.8s.09.59.28.8c.19.21.43.31.73.31s.55-.1.74-.31c.19-.21.28-.47.28-.8s-.09-.59-.28-.8Z"/>
      <path class="cls-1" d="m20.53,6.48c-.49,0-.9-.08-1.25-.25-.35-.17-.62-.41-.81-.73-.19-.32-.28-.7-.28-1.13s.09-.79.26-1.11c.17-.32.42-.57.73-.75.31-.18.67-.27,1.07-.27s.72.08,1.01.24c.29.16.5.39.66.69s.23.65.23,1.05c0,.13,0,.27-.02.42h-2.82c.05.33.19.57.42.73.23.15.54.23.93.23.22,0,.44-.03.67-.08.23-.05.44-.12.63-.21l.11.85c-.2.1-.44.18-.72.23-.27.06-.55.09-.83.09Zm-.93-3.2c-.16.16-.26.38-.3.67h1.78c0-.06,0-.11-.02-.16-.04-.24-.13-.43-.27-.56-.15-.13-.34-.2-.57-.2-.25,0-.46.08-.62.24Z"/>
      <path class="cls-1" d="m23.11,2.35h1.11l.02.57c.1-.22.26-.4.48-.52.21-.12.46-.18.75-.18.45,0,.8.15,1.05.44.25.29.37.71.37,1.26v2.43h-1.14v-2.21c0-.6-.23-.9-.69-.9-.25,0-.44.08-.58.25-.14.17-.2.41-.2.71v2.15h-1.14v-4Z"/>
      <path class="cls-1" d="m29.81.39h1.25v2.55l2.35-2.55h1.54l-2.73,2.85,3,3.11h-1.68l-2.49-2.69v2.69h-1.25V.39Z"/>
      <path class="cls-1" d="m39.59,6.35h-1.09l-.02-.6c-.27.48-.72.72-1.33.72-.36,0-.67-.09-.95-.27s-.49-.43-.65-.75c-.16-.32-.24-.69-.24-1.1s.08-.76.25-1.09c.17-.32.39-.58.68-.76.28-.19.6-.28.95-.28.28,0,.53.06.75.19s.4.3.53.53l.02-.59h1.09v4Zm-1.36-1.2c.19-.21.28-.47.28-.8s-.09-.59-.28-.8c-.19-.21-.43-.31-.74-.31s-.54.1-.73.31c-.19.21-.28.47-.28.8s.09.59.28.8c.19.21.43.31.73.31s.55-.1.74-.31Z"/>
      <path class="cls-1" d="m40.71,2.35h1.11v.78c.1-.27.24-.47.43-.62.19-.15.41-.22.66-.22.08,0,.17,0,.25.02.09.02.16.04.21.06l-.1,1.07c-.16-.06-.33-.09-.51-.09-.29,0-.51.1-.67.31-.16.21-.24.5-.24.89v1.8h-1.14v-4Z"/>
      <path class="cls-1" d="m48.03,6.35h-1.09l-.02-.6c-.27.48-.72.72-1.33.72-.36,0-.67-.09-.95-.27s-.49-.43-.65-.75c-.16-.32-.24-.69-.24-1.1s.08-.76.25-1.09c.17-.32.39-.58.68-.76.28-.19.6-.28.95-.28.28,0,.53.06.75.19s.4.3.53.53l.02-.59h1.09v4Zm-1.36-1.2c.19-.21.28-.47.28-.8s-.09-.59-.28-.8c-.19-.21-.43-.31-.74-.31s-.54.1-.73.31c-.19.21-.28.47-.28.8s.09.59.28.8c.19.21.43.31.73.31s.55-.1.74-.31Z"/>
      <path class="cls-1" d="m51.09,6.48c-.41,0-.78-.09-1.11-.28-.33-.19-.58-.44-.77-.76-.19-.32-.28-.68-.28-1.09s.1-.77.29-1.09c.19-.32.45-.57.78-.76.33-.19.69-.28,1.1-.28s.79.09,1.11.28.58.44.77.76.28.68.28,1.09-.1.76-.29,1.09c-.19.32-.45.58-.77.76s-.69.28-1.11.28Zm.74-2.92c-.19-.21-.43-.31-.74-.31s-.54.1-.73.31c-.19.21-.28.47-.28.8s.09.59.28.8c.19.21.43.31.73.31s.55-.1.74-.31c.19-.21.28-.47.28-.8s-.09-.59-.28-.8Z"/>
      <path class="cls-1" d="m58.2,6.06c0,.75-.19,1.31-.57,1.7-.38.39-.94.58-1.69.58-.19,0-.39-.02-.59-.05-.2-.03-.38-.07-.55-.12s-.31-.11-.41-.17l.12-.96c.17.1.37.18.61.24.24.06.47.09.68.09.86,0,1.29-.42,1.29-1.26v-.39c-.14.23-.32.4-.54.52-.23.12-.49.18-.78.18-.36,0-.67-.09-.95-.27-.28-.18-.49-.42-.65-.74-.16-.31-.24-.67-.24-1.08s.08-.76.25-1.08.39-.57.68-.76c.28-.19.6-.28.96-.28.27,0,.52.06.74.18.22.12.4.3.53.53l.02-.59h1.09v3.71Zm-1.36-2.53c-.19-.21-.43-.31-.74-.31s-.54.1-.73.31c-.19.21-.28.47-.28.8s.09.59.28.8c.19.21.43.31.73.31s.55-.1.74-.31c.19-.21.28-.47.28-.8s-.09-.59-.28-.8Z"/>
      <path class="cls-1" d="m59.32,0h1.14v6.35h-1.14V0Z"/>
      <path class="cls-1" d="m65.62,6.35h-1.09l-.02-.6c-.27.48-.72.72-1.33.72-.36,0-.67-.09-.95-.27s-.49-.43-.65-.75c-.16-.32-.24-.69-.24-1.1s.08-.76.25-1.09c.17-.32.39-.58.68-.76.28-.19.6-.28.95-.28.28,0,.53.06.75.19s.4.3.53.53l.02-.59h1.09v4Zm-1.36-1.2c.19-.21.28-.47.28-.8s-.09-.59-.28-.8c-.19-.21-.43-.31-.74-.31s-.54.1-.73.31c-.19.21-.28.47-.28.8s.09.59.28.8c.19.21.43.31.73.31s.55-.1.74-.31Z"/>
      <path class="cls-1" d="m66.74,2.35h1.11l.02.57c.1-.22.26-.4.48-.52.21-.12.46-.18.75-.18.45,0,.8.15,1.05.44.25.29.37.71.37,1.26v2.43h-1.14v-2.21c0-.6-.23-.9-.69-.9-.25,0-.44.08-.58.25-.14.17-.2.41-.2.71v2.15h-1.14v-4Z"/>
    </g>
  </g>
</svg>