<?xml version="1.0" encoding="UTF-8"?>
<svg id="Layer_2" data-name="Layer 2" xmlns="http://www.w3.org/2000/svg" viewBox="0 0 36 36">
  <defs>
    <style>
      .cls-1 {
        fill: #fff;
      }

      .cls-2 {
        fill: #231f20;
      }
    </style>
  </defs>
  <g id="Layer_1-2" data-name="Layer 1">
    <g>
      <rect class="cls-2" width="36" height="36"/>
      <path class="cls-1" d="m12.26,10.82c.46.47.7,1.04.7,1.71s-.23,1.25-.7,1.71c-.46.46-1.04.7-1.71.7s-1.25-.23-1.71-.7-.7-1.04-.7-1.71.23-1.25.7-1.71c.46-.46,1.04-.7,1.71-.7s1.25.23,1.71.7Zm0,15.07c.46.47.7,1.04.7,1.71s-.23,1.25-.7,1.71c-.46.46-1.04.7-1.71.7s-1.25-.23-1.71-.7c-.46-.46-.7-1.04-.7-1.71s.23-1.25.7-1.71c.46-.46,1.04-.7,1.71-.7s1.25.23,1.71.7Zm3.77-18.83c.46.47.7,1.04.7,1.71s-.23,1.25-.7,1.71c-.46.46-1.04.7-1.71.7s-1.25-.23-1.71-.7c-.46-.46-.7-1.04-.7-1.71s.23-1.25.7-1.71c.46-.46,1.04-.7,1.71-.7s1.25.23,1.71.7Zm0,7.53c.46.47.7,1.04.7,1.71s-.23,1.25-.7,1.71c-.46.46-1.04.7-1.71.7s-1.25-.23-1.71-.7c-.46-.46-.7-1.04-.7-1.71s.23-1.25.7-1.71c.46-.46,1.04-.7,1.71-.7s1.25.23,1.71.7Zm0,11.3c.46.47.7,1.04.7,1.71s-.23,1.25-.7,1.71c-.46.46-1.04.7-1.71.7s-1.25-.23-1.71-.7c-.46-.46-.7-1.04-.7-1.71s.23-1.25.7-1.71c.46-.46,1.04-.7,1.71-.7s1.25.23,1.71.7Zm3.77-18.83c.46.47.7,1.04.7,1.71s-.23,1.25-.7,1.71c-.46.46-1.04.7-1.71.7s-1.25-.23-1.71-.7c-.46-.46-.7-1.04-.7-1.71s.23-1.25.7-1.71c.46-.46,1.04-.7,1.71-.7s1.25.23,1.71.7Zm0,7.53c.46.47.7,1.04.7,1.71s-.23,1.25-.7,1.71c-.46.46-1.04.7-1.71.7s-1.25-.23-1.71-.7c-.46-.46-.7-1.04-.7-1.71s.23-1.25.7-1.71c.46-.46,1.04-.7,1.71-.7s1.25.23,1.71.7Zm0,3.77c.46.47.7,1.04.7,1.71s-.23,1.25-.7,1.71c-.46.46-1.04.7-1.71.7s-1.25-.23-1.71-.7c-.46-.46-.7-1.04-.7-1.71s.23-1.25.7-1.71c.46-.46,1.04-.7,1.71-.7s1.25.23,1.71.7Zm0,7.53c.46.47.7,1.04.7,1.71s-.23,1.25-.7,1.71c-.46.46-1.04.7-1.71.7s-1.25-.23-1.71-.7c-.46-.46-.7-1.04-.7-1.71s.23-1.25.7-1.71c.46-.46,1.04-.7,1.71-.7s1.25.23,1.71.7Zm3.77-18.83c.46.47.7,1.04.7,1.71s-.23,1.25-.7,1.71c-.46.46-1.04.7-1.71.7s-1.25-.23-1.71-.7c-.46-.46-.7-1.04-.7-1.71s.23-1.25.7-1.71c.46-.46,1.04-.7,1.71-.7s1.25.23,1.71.7Zm0,11.3c.46.47.7,1.04.7,1.71s-.23,1.25-.7,1.71c-.46.46-1.04.7-1.71.7s-1.25-.23-1.71-.7c-.46-.46-.7-1.04-.7-1.71s.23-1.25.7-1.71c.46-.46,1.04-.7,1.71-.7s1.25.23,1.71.7Zm0,7.53c.46.47.7,1.04.7,1.71s-.23,1.25-.7,1.71c-.46.46-1.04.7-1.71.7s-1.25-.23-1.71-.7c-.46-.46-.7-1.04-.7-1.71s.23-1.25.7-1.71c.46-.46,1.04-.7,1.71-.7s1.25.23,1.71.7Zm3.77-18.83c.46.47.7,1.04.7,1.71s-.23,1.25-.7,1.71c-.46.46-1.04.7-1.71.7s-1.25-.23-1.71-.7c-.46-.46-.7-1.04-.7-1.71s.23-1.25.7-1.71c.46-.46,1.04-.7,1.71-.7s1.25.23,1.71.7Zm0,15.07c.46.47.7,1.04.7,1.71s-.23,1.25-.7,1.71c-.46.46-1.04.7-1.71.7s-1.25-.23-1.71-.7c-.46-.46-.7-1.04-.7-1.71s.23-1.25.7-1.71c.46-.46,1.04-.7,1.71-.7s1.25.23,1.71.7Z"/>
    </g>
  </g>
</svg>