<?xml version="1.0" encoding="UTF-8"?>
<svg id="Layer_2" data-name="Layer 2" xmlns="http://www.w3.org/2000/svg" viewBox="0 0 97.46 14.34">
  <defs>
    <style>
      .cls-1 {
        fill: #231f20;
      }
    </style>
  </defs>
  <g id="Layer_1-2" data-name="Layer 1">
    <g>
      <path class="cls-1" d="m1.9,2.05c.21.21.32.48.32.79s-.11.57-.32.79c-.21.21-.48.32-.79.32s-.57-.11-.79-.32c-.21-.21-.32-.48-.32-.79s.11-.57.32-.79c.21-.21.48-.32.79-.32s.57.11.79.32Zm0,1.73c.21.21.32.48.32.79s-.11.57-.32.79c-.21.21-.48.32-.79.32s-.57-.11-.79-.32c-.21-.21-.32-.48-.32-.79s.11-.57.32-.79c.21-.21.48-.32.79-.32s.57.11.79.32Zm0,1.73c.21.21.32.48.32.79s-.11.58-.32.79c-.21.21-.48.32-.79.32s-.57-.11-.79-.32c-.21-.21-.32-.48-.32-.79s.11-.57.32-.79c.21-.21.48-.32.79-.32s.57.11.79.32Zm0,1.73c.21.21.32.48.32.79s-.11.57-.32.79c-.21.21-.48.32-.79.32s-.57-.11-.79-.32c-.21-.21-.32-.48-.32-.79s.11-.57.32-.79c.21-.21.48-.32.79-.32s.57.11.79.32Zm0,1.73c.21.21.32.48.32.79s-.11.57-.32.79c-.21.21-.48.32-.79.32s-.57-.11-.79-.32c-.21-.21-.32-.48-.32-.79s.11-.57.32-.79c.21-.21.48-.32.79-.32s.57.11.79.32Zm0,1.73c.21.21.32.48.32.79s-.11.58-.32.79c-.21.21-.48.32-.79.32s-.57-.11-.79-.32c-.21-.21-.32-.48-.32-.79s.11-.57.32-.79c.21-.21.48-.32.79-.32s.57.11.79.32Zm1.73,0c.21.21.32.48.32.79s-.11.58-.32.79c-.21.21-.48.32-.79.32s-.57-.11-.79-.32c-.21-.21-.32-.48-.32-.79s.11-.57.32-.79c.21-.21.48-.32.79-.32s.57.11.79.32Zm1.73,0c.21.21.32.48.32.79s-.11.58-.32.79c-.21.21-.48.32-.79.32s-.57-.11-.79-.32c-.21-.21-.32-.48-.32-.79s.11-.57.32-.79c.21-.21.48-.32.79-.32s.57.11.79.32Zm1.73,0c.21.21.32.48.32.79s-.11.58-.32.79c-.21.21-.48.32-.79.32s-.57-.11-.79-.32c-.21-.21-.32-.48-.32-.79s.11-.57.32-.79c.21-.21.48-.32.79-.32s.57.11.79.32Z"/>
      <path class="cls-1" d="m10.55,5.52c.21.21.32.48.32.79s-.11.58-.32.79c-.21.21-.48.32-.79.32s-.57-.11-.79-.32c-.21-.21-.32-.48-.32-.79s.11-.57.32-.79c.21-.21.48-.32.79-.32s.57.11.79.32Zm0,1.73c.21.21.32.48.32.79s-.11.57-.32.79c-.21.21-.48.32-.79.32s-.57-.11-.79-.32c-.21-.21-.32-.48-.32-.79s.11-.57.32-.79c.21-.21.48-.32.79-.32s.57.11.79.32Zm0,1.73c.21.21.32.48.32.79s-.11.57-.32.79c-.21.21-.48.32-.79.32s-.57-.11-.79-.32c-.21-.21-.32-.48-.32-.79s.11-.57.32-.79c.21-.21.48-.32.79-.32s.57.11.79.32Zm1.73-5.2c.21.21.32.48.32.79s-.11.57-.32.79c-.21.21-.48.32-.79.32s-.57-.11-.79-.32c-.21-.21-.32-.48-.32-.79s.11-.57.32-.79c.21-.21.48-.32.79-.32s.57.11.79.32Zm0,6.93c.21.21.32.48.32.79s-.11.58-.32.79c-.21.21-.48.32-.79.32s-.57-.11-.79-.32c-.21-.21-.32-.48-.32-.79s.11-.57.32-.79c.21-.21.48-.32.79-.32s.57.11.79.32Zm1.73-6.93c.21.21.32.48.32.79s-.11.57-.32.79c-.21.21-.48.32-.79.32s-.57-.11-.79-.32c-.21-.21-.32-.48-.32-.79s.11-.57.32-.79c.21-.21.48-.32.79-.32s.57.11.79.32Zm0,6.93c.21.21.32.48.32.79s-.11.58-.32.79c-.21.21-.48.32-.79.32s-.57-.11-.79-.32c-.21-.21-.32-.48-.32-.79s.11-.57.32-.79c.21-.21.48-.32.79-.32s.57.11.79.32Zm1.73-6.93c.21.21.32.48.32.79s-.11.57-.32.79c-.21.21-.48.32-.79.32s-.57-.11-.79-.32c-.21-.21-.32-.48-.32-.79s.11-.57.32-.79c.21-.21.48-.32.79-.32s.57.11.79.32Zm0,6.93c.21.21.32.48.32.79s-.11.58-.32.79c-.21.21-.48.32-.79.32s-.57-.11-.79-.32c-.21-.21-.32-.48-.32-.79s.11-.57.32-.79c.21-.21.48-.32.79-.32s.57.11.79.32Zm1.73-5.2c.21.21.32.48.32.79s-.11.58-.32.79c-.21.21-.48.32-.79.32s-.57-.11-.79-.32c-.21-.21-.32-.48-.32-.79s.11-.57.32-.79c.21-.21.48-.32.79-.32s.57.11.79.32Zm0,1.73c.21.21.32.48.32.79s-.11.57-.32.79c-.21.21-.48.32-.79.32s-.57-.11-.79-.32c-.21-.21-.32-.48-.32-.79s.11-.57.32-.79c.21-.21.48-.32.79-.32s.57.11.79.32Zm0,1.73c.21.21.32.48.32.79s-.11.57-.32.79c-.21.21-.48.32-.79.32s-.57-.11-.79-.32c-.21-.21-.32-.48-.32-.79s.11-.57.32-.79c.21-.21.48-.32.79-.32s.57.11.79.32Z"/>
      <path class="cls-1" d="m20.94,8.98c.21.21.32.48.32.79s-.11.57-.32.79c-.21.21-.48.32-.79.32s-.57-.11-.79-.32c-.21-.21-.32-.48-.32-.79s.11-.57.32-.79c.21-.21.48-.32.79-.32s.57.11.79.32Zm1.73-5.2c.21.21.32.48.32.79s-.11.57-.32.79c-.21.21-.48.32-.79.32s-.57-.11-.79-.32c-.21-.21-.32-.48-.32-.79s.11-.57.32-.79c.21-.21.48-.32.79-.32s.57.11.79.32Zm0,3.46c.21.21.32.48.32.79s-.11.57-.32.79c-.21.21-.48.32-.79.32s-.57-.11-.79-.32c-.21-.21-.32-.48-.32-.79s.11-.57.32-.79c.21-.21.48-.32.79-.32s.57.11.79.32Zm0,3.46c.21.21.32.48.32.79s-.11.58-.32.79c-.21.21-.48.32-.79.32s-.57-.11-.79-.32c-.21-.21-.32-.48-.32-.79s.11-.57.32-.79c.21-.21.48-.32.79-.32s.57.11.79.32Zm1.73-6.93c.21.21.32.48.32.79s-.11.57-.32.79c-.21.21-.48.32-.79.32s-.57-.11-.79-.32c-.21-.21-.32-.48-.32-.79s.11-.57.32-.79c.21-.21.48-.32.79-.32s.57.11.79.32Zm0,3.46c.21.21.32.48.32.79s-.11.57-.32.79c-.21.21-.48.32-.79.32s-.57-.11-.79-.32c-.21-.21-.32-.48-.32-.79s.11-.57.32-.79c.21-.21.48-.32.79-.32s.57.11.79.32Zm0,3.46c.21.21.32.48.32.79s-.11.58-.32.79c-.21.21-.48.32-.79.32s-.57-.11-.79-.32c-.21-.21-.32-.48-.32-.79s.11-.57.32-.79c.21-.21.48-.32.79-.32s.57.11.79.32Zm1.73-6.93c.21.21.32.48.32.79s-.11.57-.32.79c-.21.21-.48.32-.79.32s-.57-.11-.79-.32c-.21-.21-.32-.48-.32-.79s.11-.57.32-.79c.21-.21.48-.32.79-.32s.57.11.79.32Zm0,3.46c.21.21.32.48.32.79s-.11.57-.32.79c-.21.21-.48.32-.79.32s-.57-.11-.79-.32c-.21-.21-.32-.48-.32-.79s.11-.57.32-.79c.21-.21.48-.32.79-.32s.57.11.79.32Zm1.73-1.73c.21.21.32.48.32.79s-.11.58-.32.79c-.21.21-.48.32-.79.32s-.57-.11-.79-.32c-.21-.21-.32-.48-.32-.79s.11-.57.32-.79c.21-.21.48-.32.79-.32s.57.11.79.32Zm0,1.73c.21.21.32.48.32.79s-.11.57-.32.79c-.21.21-.48.32-.79.32s-.57-.11-.79-.32c-.21-.21-.32-.48-.32-.79s.11-.57.32-.79c.21-.21.48-.32.79-.32s.57.11.79.32Zm0,1.73c.21.21.32.48.32.79s-.11.57-.32.79c-.21.21-.48.32-.79.32s-.57-.11-.79-.32c-.21-.21-.32-.48-.32-.79s.11-.57.32-.79c.21-.21.48-.32.79-.32s.57.11.79.32Zm0,1.73c.21.21.32.48.32.79s-.11.58-.32.79c-.21.21-.48.32-.79.32s-.57-.11-.79-.32c-.21-.21-.32-.48-.32-.79s.11-.57.32-.79c.21-.21.48-.32.79-.32s.57.11.79.32Z"/>
      <path class="cls-1" d="m31.34,5.52c.21.21.32.48.32.79s-.11.58-.32.79c-.21.21-.48.32-.79.32s-.57-.11-.79-.32c-.21-.21-.32-.48-.32-.79s.11-.57.32-.79c.21-.21.48-.32.79-.32s.57.11.79.32Zm0,1.73c.21.21.32.48.32.79s-.11.57-.32.79c-.21.21-.48.32-.79.32s-.57-.11-.79-.32c-.21-.21-.32-.48-.32-.79s.11-.57.32-.79c.21-.21.48-.32.79-.32s.57.11.79.32Zm0,1.73c.21.21.32.48.32.79s-.11.57-.32.79c-.21.21-.48.32-.79.32s-.57-.11-.79-.32c-.21-.21-.32-.48-.32-.79s.11-.57.32-.79c.21-.21.48-.32.79-.32s.57.11.79.32Zm1.73-5.2c.21.21.32.48.32.79s-.11.57-.32.79c-.21.21-.48.32-.79.32s-.57-.11-.79-.32c-.21-.21-.32-.48-.32-.79s.11-.57.32-.79c.21-.21.48-.32.79-.32s.57.11.79.32Zm0,6.93c.21.21.32.48.32.79s-.11.58-.32.79c-.21.21-.48.32-.79.32s-.57-.11-.79-.32c-.21-.21-.32-.48-.32-.79s.11-.57.32-.79c.21-.21.48-.32.79-.32s.57.11.79.32Zm1.73-6.93c.21.21.32.48.32.79s-.11.57-.32.79c-.21.21-.48.32-.79.32s-.57-.11-.79-.32c-.21-.21-.32-.48-.32-.79s.11-.57.32-.79c.21-.21.48-.32.79-.32s.57.11.79.32Zm0,6.93c.21.21.32.48.32.79s-.11.58-.32.79c-.21.21-.48.32-.79.32s-.57-.11-.79-.32c-.21-.21-.32-.48-.32-.79s.11-.57.32-.79c.21-.21.48-.32.79-.32s.57.11.79.32Zm1.73-6.93c.21.21.32.48.32.79s-.11.57-.32.79c-.21.21-.48.32-.79.32s-.57-.11-.79-.32c-.21-.21-.32-.48-.32-.79s.11-.57.32-.79c.21-.21.48-.32.79-.32s.57.11.79.32Zm0,5.2c.21.21.32.48.32.79s-.11.57-.32.79c-.21.21-.48.32-.79.32s-.57-.11-.79-.32c-.21-.21-.32-.48-.32-.79s.11-.57.32-.79c.21-.21.48-.32.79-.32s.57.11.79.32Zm1.73-6.93c.21.21.32.48.32.79s-.11.57-.32.79c-.21.21-.48.32-.79.32s-.57-.11-.79-.32c-.21-.21-.32-.48-.32-.79s.11-.57.32-.79c.21-.21.48-.32.79-.32s.57.11.79.32Zm0,1.73c.21.21.32.48.32.79s-.11.57-.32.79c-.21.21-.48.32-.79.32s-.57-.11-.79-.32c-.21-.21-.32-.48-.32-.79s.11-.57.32-.79c.21-.21.48-.32.79-.32s.57.11.79.32Zm0,1.73c.21.21.32.48.32.79s-.11.58-.32.79c-.21.21-.48.32-.79.32s-.57-.11-.79-.32c-.21-.21-.32-.48-.32-.79s.11-.57.32-.79c.21-.21.48-.32.79-.32s.57.11.79.32Zm0,1.73c.21.21.32.48.32.79s-.11.57-.32.79c-.21.21-.48.32-.79.32s-.57-.11-.79-.32c-.21-.21-.32-.48-.32-.79s.11-.57.32-.79c.21-.21.48-.32.79-.32s.57.11.79.32Zm0,1.73c.21.21.32.48.32.79s-.11.57-.32.79c-.21.21-.48.32-.79.32s-.57-.11-.79-.32c-.21-.21-.32-.48-.32-.79s.11-.57.32-.79c.21-.21.48-.32.79-.32s.57.11.79.32Zm0,1.73c.21.21.32.48.32.79s-.11.58-.32.79c-.21.21-.48.32-.79.32s-.57-.11-.79-.32c-.21-.21-.32-.48-.32-.79s.11-.57.32-.79c.21-.21.48-.32.79-.32s.57.11.79.32Z"/>
      <path class="cls-1" d="m41.73,3.78c.21.21.32.48.32.79s-.11.57-.32.79c-.21.21-.48.32-.79.32s-.57-.11-.79-.32c-.21-.21-.32-.48-.32-.79s.11-.57.32-.79c.21-.21.48-.32.79-.32s.57.11.79.32Zm0,6.93c.21.21.32.48.32.79s-.11.58-.32.79c-.21.21-.48.32-.79.32s-.57-.11-.79-.32c-.21-.21-.32-.48-.32-.79s.11-.57.32-.79c.21-.21.48-.32.79-.32s.57.11.79.32Zm1.73-6.93c.21.21.32.48.32.79s-.11.57-.32.79-.48.32-.79.32-.57-.11-.79-.32-.32-.48-.32-.79.11-.57.32-.79c.21-.21.48-.32.79-.32s.57.11.79.32Zm0,6.93c.21.21.32.48.32.79s-.11.58-.32.79c-.21.21-.48.32-.79.32s-.57-.11-.79-.32c-.21-.21-.32-.48-.32-.79s.11-.57.32-.79c.21-.21.48-.32.79-.32s.57.11.79.32Zm1.73-10.39c.21.21.32.48.32.79s-.11.57-.32.79c-.21.21-.48.32-.79.32s-.57-.11-.79-.32c-.21-.21-.32-.48-.32-.79s.11-.57.32-.79c.21-.21.48-.32.79-.32s.57.11.79.32Zm0,3.46c.21.21.32.48.32.79s-.11.57-.32.79-.48.32-.79.32-.57-.11-.79-.32c-.21-.21-.32-.48-.32-.79s.11-.57.32-.79.48-.32.79-.32.57.11.79.32Zm0,1.73c.21.21.32.48.32.79s-.11.58-.32.79c-.21.21-.48.32-.79.32s-.57-.11-.79-.32c-.21-.21-.32-.48-.32-.79s.11-.57.32-.79c.21-.21.48-.32.79-.32s.57.11.79.32Zm0,1.73c.21.21.32.48.32.79s-.11.57-.32.79-.48.32-.79.32-.57-.11-.79-.32c-.21-.21-.32-.48-.32-.79s.11-.57.32-.79c.21-.21.48-.32.79-.32s.57.11.79.32Zm0,1.73c.21.21.32.48.32.79s-.11.57-.32.79-.48.32-.79.32-.57-.11-.79-.32c-.21-.21-.32-.48-.32-.79s.11-.57.32-.79.48-.32.79-.32.57.11.79.32Zm0,1.73c.21.21.32.48.32.79s-.11.58-.32.79c-.21.21-.48.32-.79.32s-.57-.11-.79-.32c-.21-.21-.32-.48-.32-.79s.11-.57.32-.79c.21-.21.48-.32.79-.32s.57.11.79.32Zm1.73,0c.21.21.32.48.32.79s-.11.58-.32.79-.48.32-.79.32-.57-.11-.79-.32c-.21-.21-.32-.48-.32-.79s.11-.57.32-.79c.21-.21.48-.32.79-.32s.57.11.79.32Zm1.73,0c.21.21.32.48.32.79s-.11.58-.32.79c-.21.21-.48.32-.79.32s-.57-.11-.79-.32c-.21-.21-.32-.48-.32-.79s.11-.57.32-.79c.21-.21.48-.32.79-.32s.57.11.79.32Z"/>
      <path class="cls-1" d="m52.12,3.78c.21.21.32.48.32.79s-.11.57-.32.79-.48.32-.79.32-.57-.11-.79-.32c-.21-.21-.32-.48-.32-.79s.11-.57.32-.79.48-.32.79-.32.57.11.79.32Zm0,1.73c.21.21.32.48.32.79s-.11.58-.32.79c-.21.21-.48.32-.79.32s-.57-.11-.79-.32c-.21-.21-.32-.48-.32-.79s.11-.57.32-.79c.21-.21.48-.32.79-.32s.57.11.79.32Zm0,1.73c.21.21.32.48.32.79s-.11.57-.32.79-.48.32-.79.32-.57-.11-.79-.32c-.21-.21-.32-.48-.32-.79s.11-.57.32-.79c.21-.21.48-.32.79-.32s.57.11.79.32Zm0,1.73c.21.21.32.48.32.79s-.11.57-.32.79-.48.32-.79.32-.57-.11-.79-.32c-.21-.21-.32-.48-.32-.79s.11-.57.32-.79.48-.32.79-.32.57.11.79.32Zm0,1.73c.21.21.32.48.32.79s-.11.58-.32.79c-.21.21-.48.32-.79.32s-.57-.11-.79-.32c-.21-.21-.32-.48-.32-.79s.11-.57.32-.79c.21-.21.48-.32.79-.32s.57.11.79.32Zm1.73-5.2c.21.21.32.48.32.79s-.11.58-.32.79-.48.32-.79.32-.58-.11-.79-.32c-.21-.21-.32-.48-.32-.79s.11-.57.32-.79c.21-.21.48-.32.79-.32s.57.11.79.32Zm1.73-1.73c.21.21.32.48.32.79s-.11.57-.32.79c-.21.21-.48.32-.79.32s-.57-.11-.79-.32-.32-.48-.32-.79.11-.57.32-.79c.21-.21.48-.32.79-.32s.57.11.79.32Zm1.73,0c.21.21.32.48.32.79s-.11.57-.32.79-.48.32-.79.32-.57-.11-.79-.32c-.21-.21-.32-.48-.32-.79s.11-.57.32-.79c.21-.21.48-.32.79-.32s.57.11.79.32Zm1.73,1.73c.21.21.32.48.32.79s-.11.58-.32.79c-.21.21-.48.32-.79.32s-.58-.11-.79-.32c-.21-.21-.32-.48-.32-.79s.11-.57.32-.79c.21-.21.48-.32.79-.32s.57.11.79.32Zm0,1.73c.21.21.32.48.32.79s-.11.57-.32.79c-.21.21-.48.32-.79.32s-.58-.11-.79-.32c-.21-.21-.32-.48-.32-.79s.11-.57.32-.79c.21-.21.48-.32.79-.32s.57.11.79.32Zm0,1.73c.21.21.32.48.32.79s-.11.57-.32.79c-.21.21-.48.32-.79.32s-.58-.11-.79-.32c-.21-.21-.32-.48-.32-.79s.11-.57.32-.79.48-.32.79-.32.57.11.79.32Zm0,1.73c.21.21.32.48.32.79s-.11.58-.32.79c-.21.21-.48.32-.79.32s-.58-.11-.79-.32c-.21-.21-.32-.48-.32-.79s.11-.57.32-.79c.21-.21.48-.32.79-.32s.57.11.79.32Z"/>
      <path class="cls-1" d="m62.51,5.52c.21.21.32.48.32.79s-.11.58-.32.79-.48.32-.79.32-.57-.11-.79-.32c-.21-.21-.32-.48-.32-.79s.11-.57.32-.79.48-.32.79-.32.57.11.79.32Zm0,1.73c.21.21.32.48.32.79s-.11.57-.32.79c-.21.21-.48.32-.79.32s-.57-.11-.79-.32-.32-.48-.32-.79.11-.57.32-.79.48-.32.79-.32.57.11.79.32Zm1.73-3.46c.21.21.32.48.32.79s-.11.57-.32.79-.48.32-.79.32-.57-.11-.79-.32-.32-.48-.32-.79.11-.57.32-.79c.21-.21.48-.32.79-.32s.57.11.79.32Zm0,5.2c.21.21.32.48.32.79s-.11.57-.32.79-.48.32-.79.32-.57-.11-.79-.32-.32-.48-.32-.79.11-.57.32-.79c.21-.21.48-.32.79-.32s.57.11.79.32Zm0,3.46c.21.21.32.48.32.79s-.11.57-.32.79c-.21.21-.48.32-.79.32s-.57-.11-.79-.32c-.21-.21-.32-.48-.32-.79s.11-.58.32-.79c.21-.21.48-.32.79-.32s.57.11.79.32Zm1.73-8.66c.21.21.32.48.32.79s-.11.57-.32.79-.48.32-.79.32-.57-.11-.79-.32c-.21-.21-.32-.48-.32-.79s.11-.57.32-.79.48-.32.79-.32.57.11.79.32Zm0,5.2c.21.21.32.48.32.79s-.11.57-.32.79-.48.32-.79.32-.57-.11-.79-.32c-.21-.21-.32-.48-.32-.79s.11-.57.32-.79.48-.32.79-.32.57.11.79.32Zm0,3.46c.21.21.32.48.32.79s-.11.57-.32.79c-.21.21-.48.32-.79.32s-.57-.11-.79-.32c-.21-.21-.32-.48-.32-.79s.11-.58.32-.79c.21-.21.48-.32.79-.32s.57.11.79.32Zm1.73-8.66c.21.21.32.48.32.79s-.11.57-.32.79c-.21.21-.48.32-.79.32s-.57-.11-.79-.32-.32-.48-.32-.79.11-.57.32-.79c.21-.21.48-.32.79-.32s.57.11.79.32Zm0,5.2c.21.21.32.48.32.79s-.11.57-.32.79c-.21.21-.48.32-.79.32s-.57-.11-.79-.32-.32-.48-.32-.79.11-.57.32-.79c.21-.21.48-.32.79-.32s.57.11.79.32Zm0,3.46c.21.21.32.48.32.79s-.11.57-.32.79-.48.32-.79.32-.57-.11-.79-.32c-.21-.21-.32-.48-.32-.79s.11-.58.32-.79c.21-.21.48-.32.79-.32s.57.11.79.32Zm1.73-8.66c.21.21.32.48.32.79s-.11.57-.32.79-.48.32-.79.32-.57-.11-.79-.32-.32-.48-.32-.79.11-.57.32-.79c.21-.21.48-.32.79-.32s.57.11.79.32Zm0,1.73c.21.21.32.48.32.79s-.11.58-.32.79c-.21.21-.48.32-.79.32s-.57-.11-.79-.32c-.21-.21-.32-.48-.32-.79s.11-.57.32-.79.48-.32.79-.32.57.11.79.32Zm0,1.73c.21.21.32.48.32.79s-.11.57-.32.79-.48.32-.79.32-.57-.11-.79-.32-.32-.48-.32-.79.11-.57.32-.79.48-.32.79-.32.57.11.79.32Zm0,1.73c.21.21.32.48.32.79s-.11.57-.32.79-.48.32-.79.32-.57-.11-.79-.32-.32-.48-.32-.79.11-.57.32-.79c.21-.21.48-.32.79-.32s.57.11.79.32Zm0,1.73c.21.21.32.48.32.79s-.11.58-.32.79c-.21.21-.48.32-.79.32s-.57-.11-.79-.32c-.21-.21-.32-.48-.32-.79s.11-.57.32-.79c.21-.21.48-.32.79-.32s.57.11.79.32Z"/>
      <path class="cls-1" d="m74.63,8.98c.21.21.32.48.32.79s-.11.57-.32.79-.48.32-.79.32-.57-.11-.79-.32-.32-.48-.32-.79.11-.57.32-.79c.21-.21.48-.32.79-.32s.57.11.79.32Zm0,1.73c.21.21.32.48.32.79s-.11.58-.32.79c-.21.21-.48.32-.79.32s-.57-.11-.79-.32c-.21-.21-.32-.48-.32-.79s.11-.57.32-.79c.21-.21.48-.32.79-.32s.57.11.79.32Zm1.73-1.73c.21.21.32.48.32.79s-.11.57-.32.79-.48.32-.79.32-.57-.11-.79-.32c-.21-.21-.32-.48-.32-.79s.11-.57.32-.79.48-.32.79-.32.57.11.79.32Zm0,1.73c.21.21.32.48.32.79s-.11.58-.32.79c-.21.21-.48.32-.79.32s-.57-.11-.79-.32c-.21-.21-.32-.48-.32-.79s.11-.57.32-.79c.21-.21.48-.32.79-.32s.57.11.79.32Z"/>
      <path class="cls-1" d="m85.02,8.98c.21.21.32.48.32.79s-.11.57-.32.79c-.21.21-.48.32-.79.32s-.58-.11-.79-.32c-.21-.21-.32-.48-.32-.79s.11-.57.32-.79.48-.32.79-.32.57.11.79.32Zm0,1.73c.21.21.32.48.32.79s-.11.58-.32.79-.48.32-.79.32-.58-.11-.79-.32c-.21-.21-.32-.48-.32-.79s.11-.57.32-.79c.21-.21.48-.32.79-.32s.57.11.79.32Zm1.73-1.73c.21.21.32.48.32.79s-.11.57-.32.79c-.21.21-.48.32-.79.32s-.57-.11-.79-.32-.32-.48-.32-.79.11-.57.32-.79c.21-.21.48-.32.79-.32s.57.11.79.32Zm0,1.73c.21.21.32.48.32.79s-.11.58-.32.79-.48.32-.79.32-.57-.11-.79-.32c-.21-.21-.32-.48-.32-.79s.11-.57.32-.79c.21-.21.48-.32.79-.32s.57.11.79.32Z"/>
      <path class="cls-1" d="m95.41,8.98c.21.21.32.48.32.79s-.11.57-.32.79-.48.32-.79.32-.57-.11-.79-.32-.32-.48-.32-.79.11-.57.32-.79c.21-.21.48-.32.79-.32s.57.11.79.32Zm0,1.73c.21.21.32.48.32.79s-.11.58-.32.79c-.21.21-.48.32-.79.32s-.57-.11-.79-.32c-.21-.21-.32-.48-.32-.79s.11-.57.32-.79c.21-.21.48-.32.79-.32s.57.11.79.32Zm1.73-1.73c.21.21.32.48.32.79s-.11.57-.32.79-.48.32-.79.32-.57-.11-.79-.32c-.21-.21-.32-.48-.32-.79s.11-.57.32-.79.48-.32.79-.32.57.11.79.32Zm0,1.73c.21.21.32.48.32.79s-.11.58-.32.79c-.21.21-.48.32-.79.32s-.57-.11-.79-.32c-.21-.21-.32-.48-.32-.79s.11-.57.32-.79c.21-.21.48-.32.79-.32s.57.11.79.32Z"/>
    </g>
  </g>
</svg>